<svg width="58" height="16" viewBox="0 0 58 16" fill="none" xmlns="http://www.w3.org/2000/svg">
<path d="M20.7217 6.05273V10.75H22.1084C22.818 10.75 23.3128 10.4001 23.5928 9.7002C23.7458 9.31608 23.8223 8.85872 23.8223 8.32812C23.8223 7.5957 23.7067 7.03418 23.4756 6.64355C23.2477 6.24967 22.792 6.05273 22.1084 6.05273H20.7217ZM22.3623 4.80273C22.8083 4.80924 23.1794 4.86133 23.4756 4.95898C23.9801 5.125 24.3887 5.42936 24.7012 5.87207C24.9518 6.23014 25.1227 6.61751 25.2139 7.03418C25.305 7.45085 25.3506 7.84798 25.3506 8.22559C25.3506 9.18262 25.1585 9.99316 24.7744 10.6572C24.2536 11.5524 23.4495 12 22.3623 12H19.2617V4.80273H22.3623ZM31.8105 6.07715H28.002V7.60547H31.498V8.85547H28.002V10.7061H31.9863V12H26.5322V4.80273H31.8105V6.07715ZM33.1582 4.80273H34.6621V10.7061H38.2266V12H33.1582V4.80273ZM44.5938 6.07715H40.7852V7.60547H44.2812V8.85547H40.7852V10.7061H44.7695V12H39.3154V4.80273H44.5938V6.07715ZM51.1709 4.80273V6.07715H49.0176V12H47.5039V6.07715H45.3408V4.80273H51.1709ZM57.377 6.07715H53.5684V7.60547H57.0645V8.85547H53.5684V10.7061H57.5527V12H52.0986V4.80273H57.377V6.07715Z" fill="#E53E3E"/>
<g clip-path="url(#clip0_55_269)">
<path d="M3.75 12.375C3.75 13.0625 4.3125 13.625 5 13.625H10C10.6875 13.625 11.25 13.0625 11.25 12.375V6.125C11.25 5.4375 10.6875 4.875 10 4.875H5C4.3125 4.875 3.75 5.4375 3.75 6.125V12.375ZM11.25 3H9.6875L9.24375 2.55625C9.13125 2.44375 8.96875 2.375 8.80625 2.375H6.19375C6.03125 2.375 5.86875 2.44375 5.75625 2.55625L5.3125 3H3.75C3.40625 3 3.125 3.28125 3.125 3.625C3.125 3.96875 3.40625 4.25 3.75 4.25H11.25C11.5937 4.25 11.875 3.96875 11.875 3.625C11.875 3.28125 11.5937 3 11.25 3Z" fill="#E53E3E"/>
</g>
<defs>
<clipPath id="clip0_55_269">
<rect width="15" height="15" fill="white" transform="translate(0 0.5)"/>
</clipPath>
</defs>
</svg>
