<svg width="51" height="25" viewBox="0 0 51 25" fill="none" xmlns="http://www.w3.org/2000/svg">
<g clip-path="url(#clip0_67_341)">
<g clip-path="url(#clip1_67_341)">
<g clip-path="url(#clip2_67_341)">
<path d="M6.91072 12.3251C6.92765 12.3252 6.94421 12.3202 6.95832 12.3108C6.97242 12.3014 6.98345 12.2881 6.99001 12.2725C6.99658 12.2569 6.99838 12.2397 6.99521 12.2231C6.99203 12.2065 6.98402 12.1911 6.97217 12.179L5.28779 10.4663C5.27582 10.4542 5.26051 10.4458 5.24379 10.4424C5.22708 10.439 5.20973 10.4406 5.19395 10.4471C5.17816 10.4536 5.16467 10.4646 5.15517 10.4788C5.14567 10.4929 5.14061 10.5096 5.14063 10.5267V12.0673C5.14063 12.1357 5.16779 12.2013 5.21614 12.2496C5.26449 12.298 5.33006 12.3251 5.39844 12.3251H6.91072Z" fill="#2D3748"/>
<path d="M4.73242 12.7335C4.64418 12.6465 4.57406 12.5428 4.52612 12.4285C4.47818 12.3141 4.45337 12.1915 4.45312 12.0675V10.0909H2.90625C2.54191 10.092 2.1928 10.2372 1.93517 10.4949C1.67754 10.7525 1.53233 11.1016 1.53125 11.4659V16.2784C1.53125 16.6431 1.67612 16.9929 1.93398 17.2507C2.19184 17.5086 2.54158 17.6534 2.90625 17.6534H6C6.36467 17.6534 6.71441 17.5086 6.97227 17.2507C7.23013 16.9929 7.375 16.6431 7.375 16.2784V13.0128H5.39844C5.27447 13.0126 5.15176 12.9879 5.03744 12.9399C4.92311 12.892 4.81944 12.8218 4.73242 12.7335Z" fill="#2D3748"/>
<path d="M8.49219 9.57496H10.0045C10.0214 9.57497 10.038 9.56998 10.0521 9.56062C10.0662 9.55126 10.0772 9.53794 10.0838 9.52234C10.0903 9.50673 10.0921 9.48953 10.089 9.4729C10.0858 9.45627 10.0778 9.44095 10.0659 9.42886L8.38154 7.71613C8.36957 7.70397 8.35426 7.69566 8.33754 7.69224C8.32083 7.68882 8.30348 7.69045 8.2877 7.69692C8.27191 7.70339 8.25842 7.71442 8.24892 7.72859C8.23942 7.74276 8.23436 7.75944 8.23438 7.7765V9.31714C8.23438 9.38552 8.26154 9.45109 8.30989 9.49944C8.35824 9.54779 8.42381 9.57496 8.49219 9.57496Z" fill="#2D3748"/>
<path d="M8.49219 10.2626C8.24206 10.2607 8.00273 10.1605 7.82586 9.98359C7.64899 9.80672 7.54878 9.56738 7.54687 9.31726V7.3407H5.22656C4.8848 7.3411 4.55716 7.47704 4.3155 7.7187C4.07384 7.96036 3.9379 8.288 3.9375 8.62976V9.4032H4.84242C4.95793 9.40366 5.0722 9.42694 5.17868 9.4717C5.28516 9.51646 5.38175 9.58182 5.46289 9.66402L7.80812 12.0488C7.97174 12.2148 8.06309 12.4387 8.06228 12.6718V15.5907H9.20203C9.90049 15.5907 10.4685 15.0123 10.4685 14.3016V10.2626H8.49219Z" fill="black"/>
</g>
<path d="M21.7363 8.79993V10.0743H19.583V15.9972H18.0693V10.0743H15.9063V8.79993H21.7363ZM27.9424 10.0743H24.1338V11.6027H27.6299V12.8527H24.1338V14.7032H28.1182V15.9972H22.6641V8.79993H27.9424V10.0743ZM31.2578 13.2775H33.084L32.1855 10.4454L31.2578 13.2775ZM31.3506 8.79993H33.0498L35.5986 15.9972H33.9678L33.5039 14.5177H30.8525L30.3545 15.9972H28.7822L31.3506 8.79993ZM41.2871 8.79993H43.4502V15.9972H42.0488V11.129C42.0488 10.9891 42.0505 10.7937 42.0537 10.5431C42.057 10.2892 42.0586 10.0939 42.0586 9.95715L40.6963 15.9972H39.2363L37.8838 9.95715C37.8838 10.0939 37.8854 10.2892 37.8887 10.5431C37.8919 10.7937 37.8936 10.9891 37.8936 11.129V15.9972H36.4922V8.79993H38.6797L39.9883 14.4591L41.2871 8.79993ZM45.9355 13.7755C45.9811 14.1043 46.0706 14.3501 46.2041 14.5128C46.4482 14.809 46.8665 14.9572 47.459 14.9572C47.8138 14.9572 48.1019 14.9181 48.3232 14.84C48.7432 14.6902 48.9531 14.4119 48.9531 14.005C48.9531 13.7674 48.849 13.5835 48.6406 13.4532C48.4323 13.3263 48.1051 13.214 47.6592 13.1163L46.8975 12.9454C46.1488 12.7762 45.6312 12.5922 45.3447 12.3937C44.8597 12.0616 44.6172 11.5424 44.6172 10.8361C44.6172 10.1915 44.8516 9.65605 45.3203 9.22961C45.7891 8.80318 46.4775 8.58997 47.3857 8.58997C48.1442 8.58997 48.7904 8.79179 49.3242 9.19544C49.8613 9.59583 50.1429 10.1785 50.1689 10.9435H48.7236C48.6976 10.5105 48.5088 10.2029 48.1572 10.0206C47.9229 9.90019 47.6315 9.83997 47.2832 9.83997C46.8958 9.83997 46.5866 9.91809 46.3555 10.0743C46.1243 10.2306 46.0088 10.4487 46.0088 10.7286C46.0088 10.9858 46.1227 11.1779 46.3506 11.3048C46.4971 11.3894 46.8096 11.4887 47.2881 11.6027L48.5283 11.9005C49.0719 12.0307 49.4821 12.2049 49.7588 12.423C50.1885 12.7615 50.4033 13.2514 50.4033 13.8927C50.4033 14.5503 50.151 15.0971 49.6465 15.5333C49.1452 15.9663 48.4355 16.1827 47.5176 16.1827C46.5801 16.1827 45.8428 15.9695 45.3057 15.5431C44.7686 15.1134 44.5 14.5242 44.5 13.7755H45.9355Z" fill="#2D3748"/>
</g>
<g clip-path="url(#clip3_67_341)">
<rect x="25.7471" y="24.4972" width="0.00567708" height="0.00567708" fill="#C4C4C4"/>
</g>
</g>
<defs>
<clipPath id="clip0_67_341">
<rect width="50.5" height="24.0057" fill="white" transform="translate(0.5 0.497192)"/>
</clipPath>
<clipPath id="clip1_67_341">
<rect width="50.5" height="15" fill="white" transform="translate(0.5 4.99719)"/>
</clipPath>
<clipPath id="clip2_67_341">
<rect width="11" height="11" fill="white" transform="translate(0.5 6.99719)"/>
</clipPath>
<clipPath id="clip3_67_341">
<rect width="24.0057" height="0.00567413" fill="white" transform="translate(13.7471 24.4972)"/>
</clipPath>
</defs>
</svg>
