<svg width="23" height="8" viewBox="0 0 23 8" fill="none" xmlns="http://www.w3.org/2000/svg">
<path d="M5.58398 2.07715H1.77539V3.60547H5.27148V4.85547H1.77539V6.70605H5.75977V8H0.305664V0.802734H5.58398V2.07715ZM8.3916 2.05273V6.75H9.77832C10.488 6.75 10.9827 6.40007 11.2627 5.7002C11.4157 5.31608 11.4922 4.85872 11.4922 4.32812C11.4922 3.5957 11.3766 3.03418 11.1455 2.64355C10.9176 2.24967 10.4619 2.05273 9.77832 2.05273H8.3916ZM10.0322 0.802734C10.4782 0.809245 10.8493 0.861328 11.1455 0.958984C11.6501 1.125 12.0586 1.42936 12.3711 1.87207C12.6217 2.23014 12.7926 2.61751 12.8838 3.03418C12.9749 3.45085 13.0205 3.84798 13.0205 4.22559C13.0205 5.18262 12.8285 5.99316 12.4443 6.65723C11.9235 7.55241 11.1195 8 10.0322 8H6.93164V0.802734H10.0322ZM15.5352 8H14.041V0.802734H15.5352V8ZM22.1709 0.802734V2.07715H20.0176V8H18.5039V2.07715H16.3408V0.802734H22.1709Z" fill="#2D3748"/>
</svg>
