<svg width="40" height="12" viewBox="0 0 40 12" fill="none" xmlns="http://www.w3.org/2000/svg">
<path d="M2.2207 6.33398C2.27539 6.72852 2.38281 7.02344 2.54297 7.21875C2.83594 7.57422 3.33789 7.75195 4.04883 7.75195C4.47461 7.75195 4.82031 7.70508 5.08594 7.61133C5.58984 7.43164 5.8418 7.09766 5.8418 6.60937C5.8418 6.32422 5.7168 6.10352 5.4668 5.94727C5.2168 5.79492 4.82422 5.66016 4.28906 5.54297L3.375 5.33789C2.47656 5.13477 1.85547 4.91406 1.51172 4.67578C0.929688 4.27734 0.638672 3.6543 0.638672 2.80664C0.638672 2.0332 0.919922 1.39062 1.48242 0.878906C2.04492 0.367187 2.87109 0.111327 3.96094 0.111327C4.87109 0.111327 5.64648 0.353515 6.28711 0.83789C6.93164 1.31836 7.26953 2.01758 7.30078 2.93555H5.56641C5.53516 2.41602 5.30859 2.04687 4.88672 1.82812C4.60547 1.68359 4.25586 1.61133 3.83789 1.61133C3.37305 1.61133 3.00195 1.70508 2.72461 1.89258C2.44727 2.08008 2.30859 2.3418 2.30859 2.67773C2.30859 2.98633 2.44531 3.2168 2.71875 3.36914C2.89453 3.4707 3.26953 3.58984 3.84375 3.72656L5.33203 4.08398C5.98438 4.24023 6.47656 4.44922 6.80859 4.71094C7.32422 5.11719 7.58203 5.70508 7.58203 6.47461C7.58203 7.26367 7.2793 7.91992 6.67383 8.44336C6.07227 8.96289 5.2207 9.22266 4.11914 9.22266C2.99414 9.22266 2.10938 8.9668 1.46484 8.45508C0.820313 7.93945 0.498047 7.23242 0.498047 6.33398H2.2207ZM10.5 1.85156H8.80664V0.310546H10.5V1.85156ZM8.80664 2.61328H10.5V9H8.80664V2.61328ZM14.8652 7.62891C15.2559 7.62891 15.5859 7.48242 15.8555 7.18945C16.125 6.89258 16.2598 6.42187 16.2598 5.77734C16.2598 5.17187 16.1309 4.71094 15.873 4.39453C15.6191 4.07812 15.2773 3.91992 14.8477 3.91992C14.2617 3.91992 13.8574 4.19531 13.6348 4.74609C13.5176 5.03906 13.459 5.40039 13.459 5.83008C13.459 6.20117 13.5215 6.53125 13.6465 6.82031C13.873 7.35937 14.2793 7.62891 14.8652 7.62891ZM14.4492 2.46094C14.7695 2.46094 15.0488 2.50977 15.2871 2.60742C15.6934 2.77539 16.0215 3.08398 16.2715 3.5332V2.61328H17.8945V8.67187C17.8945 9.49609 17.7559 10.1172 17.4785 10.5352C17.002 11.2539 16.0879 11.6133 14.7363 11.6133C13.9199 11.6133 13.2539 11.4531 12.7383 11.1328C12.2227 10.8125 11.9375 10.334 11.8828 9.69727H13.6992C13.7461 9.89258 13.8223 10.0332 13.9277 10.1191C14.1074 10.2715 14.4102 10.3477 14.8359 10.3477C15.4375 10.3477 15.8398 10.1465 16.043 9.74414C16.1758 9.48633 16.2422 9.05273 16.2422 8.44336V8.0332C16.082 8.30664 15.9102 8.51172 15.7266 8.64844C15.3945 8.90234 14.9629 9.0293 14.4316 9.0293C13.6113 9.0293 12.9551 8.74219 12.4629 8.16797C11.9746 7.58984 11.7305 6.80859 11.7305 5.82422C11.7305 4.875 11.9668 4.07812 12.4395 3.43359C12.9121 2.78516 13.582 2.46094 14.4492 2.46094ZM22.998 2.46094C23.6582 2.46094 24.1973 2.63477 24.6152 2.98242C25.0371 3.32617 25.248 3.89844 25.248 4.69922V9H23.5371V5.11523C23.5371 4.7793 23.4922 4.52148 23.4023 4.3418C23.2383 4.01367 22.9258 3.84961 22.4648 3.84961C21.8984 3.84961 21.5098 4.08984 21.2988 4.57031C21.1895 4.82422 21.1348 5.14844 21.1348 5.54297V9H19.4707V2.625H21.082V3.55664C21.2969 3.22852 21.5 2.99219 21.6914 2.84766C22.0352 2.58984 22.4707 2.46094 22.998 2.46094ZM31.9219 9H30.1289V0.363281H31.9219V9ZM37.0137 2.46094C37.6738 2.46094 38.2129 2.63477 38.6309 2.98242C39.0527 3.32617 39.2637 3.89844 39.2637 4.69922V9H37.5527V5.11523C37.5527 4.7793 37.5078 4.52148 37.418 4.3418C37.2539 4.01367 36.9414 3.84961 36.4805 3.84961C35.9141 3.84961 35.5254 4.08984 35.3145 4.57031C35.2051 4.82422 35.1504 5.14844 35.1504 5.54297V9H33.4863V2.625H35.0977V3.55664C35.3125 3.22852 35.5156 2.99219 35.707 2.84766C36.0508 2.58984 36.4863 2.46094 37.0137 2.46094Z" fill="currentColor"/>
</svg>
