<svg width="57" height="57" viewBox="0 0 57 57" fill="none" xmlns="http://www.w3.org/2000/svg">
<g filter="url(#filter0_d_4_80)">
<rect x="6.00024" y="2.5" width="45" height="45" rx="12" fill="#4FD1C5"/>
</g>
<path d="M24.9845 33.4374C25.7611 33.4374 26.3907 32.8078 26.3907 32.0311C26.3907 31.2545 25.7611 30.6249 24.9845 30.6249C24.2078 30.6249 23.5782 31.2545 23.5782 32.0311C23.5782 32.8078 24.2078 33.4374 24.9845 33.4374Z" fill="white"/>
<path d="M34.8282 33.4374C35.6049 33.4374 36.2345 32.8078 36.2345 32.0311C36.2345 31.2545 35.6049 30.6249 34.8282 30.6249C34.0516 30.6249 33.422 31.2545 33.422 32.0311C33.422 32.8078 34.0516 33.4374 34.8282 33.4374Z" fill="white"/>
<path d="M37.3243 19.058C37.2256 18.9371 37.1011 18.8398 36.96 18.7731C36.8189 18.7063 36.6648 18.6718 36.5087 18.6721H23.134L22.8646 17.1437C22.8358 16.9809 22.7507 16.8334 22.624 16.7272C22.4974 16.6209 22.3373 16.5627 22.172 16.5627H19.3595C19.173 16.5627 18.9942 16.6368 18.8623 16.7687C18.7305 16.9005 18.6564 17.0794 18.6564 17.2659C18.6564 17.4523 18.7305 17.6312 18.8623 17.7631C18.9942 17.8949 19.173 17.969 19.3595 17.969H21.5823L23.5888 29.3412C23.6175 29.504 23.7027 29.6514 23.8293 29.7577C23.956 29.8639 24.1161 29.9221 24.2814 29.9221H35.5314C35.7178 29.9221 35.8967 29.848 36.0286 29.7162C36.1604 29.5843 36.2345 29.4055 36.2345 29.219C36.2345 29.0325 36.1604 28.8537 36.0286 28.7218C35.8967 28.5899 35.7178 28.5159 35.5314 28.5159H24.8711L24.6233 27.1096H35.2431C35.4869 27.1093 35.7232 27.0248 35.9118 26.8703C36.1005 26.7158 36.23 26.5009 36.2784 26.2619L37.5441 19.9338C37.5746 19.7806 37.5707 19.6226 37.5327 19.4712C37.4947 19.3197 37.4235 19.1786 37.3243 19.058Z" fill="white"/>
<defs>
<filter id="filter0_d_4_80" x="0.500244" y="0.5" width="56" height="56" filterUnits="userSpaceOnUse" color-interpolation-filters="sRGB">
<feFlood flood-opacity="0" result="BackgroundImageFix"/>
<feColorMatrix in="SourceAlpha" type="matrix" values="0 0 0 0 0 0 0 0 0 0 0 0 0 0 0 0 0 0 127 0" result="hardAlpha"/>
<feOffset dy="3.5"/>
<feGaussianBlur stdDeviation="2.75"/>
<feColorMatrix type="matrix" values="0 0 0 0 0 0 0 0 0 0 0 0 0 0 0 0 0 0 0.02 0"/>
<feBlend mode="normal" in2="BackgroundImageFix" result="effect1_dropShadow_4_80"/>
<feBlend mode="normal" in="SourceGraphic" in2="effect1_dropShadow_4_80" result="shape"/>
</filter>
</defs>
</svg>
