<svg width="56" height="57" viewBox="0 0 56 57" fill="none" xmlns="http://www.w3.org/2000/svg">
<g filter="url(#filter0_d_4_80)">
<rect x="5.5" y="2.5" width="45" height="45" rx="12" fill="#4FD1C5"/>
</g>
<path d="M24.4843 33.4374C25.2609 33.4374 25.8905 32.8078 25.8905 32.0311C25.8905 31.2545 25.2609 30.6249 24.4843 30.6249C23.7076 30.6249 23.078 31.2545 23.078 32.0311C23.078 32.8078 23.7076 33.4374 24.4843 33.4374Z" fill="white"/>
<path d="M34.3281 33.4374C35.1047 33.4374 35.7343 32.8078 35.7343 32.0311C35.7343 31.2545 35.1047 30.6249 34.3281 30.6249C33.5514 30.6249 32.9218 31.2545 32.9218 32.0311C32.9218 32.8078 33.5514 33.4374 34.3281 33.4374Z" fill="white"/>
<path d="M36.8241 19.058C36.7253 18.9371 36.6009 18.8398 36.4598 18.7731C36.3187 18.7063 36.1646 18.6718 36.0085 18.6721H22.6337L22.3644 17.1437C22.3356 16.9809 22.2505 16.8334 22.1238 16.7272C21.9971 16.6209 21.8371 16.5627 21.6718 16.5627H18.8593C18.6728 16.5627 18.494 16.6368 18.3621 16.7687C18.2302 16.9005 18.1562 17.0794 18.1562 17.2659C18.1562 17.4523 18.2302 17.6312 18.3621 17.7631C18.494 17.8949 18.6728 17.969 18.8593 17.969H21.082L23.0886 29.3412C23.1173 29.504 23.2025 29.6514 23.3291 29.7577C23.4558 29.8639 23.6158 29.9221 23.7812 29.9221H35.0312C35.2176 29.9221 35.3965 29.848 35.5283 29.7162C35.6602 29.5843 35.7343 29.4055 35.7343 29.219C35.7343 29.0325 35.6602 28.8537 35.5283 28.7218C35.3965 28.5899 35.2176 28.5159 35.0312 28.5159H24.3709L24.1231 27.1096H34.7429C34.9867 27.1093 35.223 27.0248 35.4116 26.8703C35.6003 26.7158 35.7298 26.5009 35.7782 26.2619L37.0438 19.9338C37.0743 19.7806 37.0705 19.6226 37.0325 19.4712C36.9945 19.3197 36.9233 19.1786 36.8241 19.058Z" fill="white"/>
<defs>
<filter id="filter0_d_4_80" x="-4.76837e-07" y="0.5" width="56" height="56" filterUnits="userSpaceOnUse" color-interpolation-filters="sRGB">
<feFlood flood-opacity="0" result="BackgroundImageFix"/>
<feColorMatrix in="SourceAlpha" type="matrix" values="0 0 0 0 0 0 0 0 0 0 0 0 0 0 0 0 0 0 127 0" result="hardAlpha"/>
<feOffset dy="3.5"/>
<feGaussianBlur stdDeviation="2.75"/>
<feColorMatrix type="matrix" values="0 0 0 0 0 0 0 0 0 0 0 0 0 0 0 0 0 0 0.02 0"/>
<feBlend mode="normal" in2="BackgroundImageFix" result="effect1_dropShadow_4_80"/>
<feBlend mode="normal" in="SourceGraphic" in2="effect1_dropShadow_4_80" result="shape"/>
</filter>
</defs>
</svg>
