<svg width="24" height="24" viewBox="0 0 24 24" fill="none" xmlns="http://www.w3.org/2000/svg">
<path d="M4.94668 5.31816H19.0092C19.1734 5.31809 19.3375 5.32851 19.5005 5.34937C19.4453 4.96167 19.3121 4.58917 19.109 4.25433C18.9059 3.91949 18.6371 3.62925 18.3188 3.4011C18.0006 3.17294 17.6394 3.01161 17.257 2.92683C16.8747 2.84204 16.4792 2.83556 16.0943 2.90776L4.5292 4.88223H4.51602C3.79007 5.02105 3.14451 5.43178 2.71118 6.03052C3.36403 5.56616 4.14553 5.31713 4.94668 5.31816Z" fill="white"/>
<path d="M19.0093 6.37488H4.94678C4.20111 6.37569 3.48621 6.67227 2.95894 7.19954C2.43167 7.72681 2.13509 8.44171 2.13428 9.18738V17.6249C2.13509 18.3705 2.43167 19.0854 2.95894 19.6127C3.48621 20.14 4.20111 20.4366 4.94678 20.4374H19.0093C19.7549 20.4366 20.4698 20.14 20.9971 19.6127C21.5244 19.0854 21.821 18.3705 21.8218 17.6249V9.18738C21.821 8.44171 21.5244 7.72681 20.9971 7.19954C20.4698 6.67227 19.7549 6.37569 19.0093 6.37488ZM16.9219 14.8124C16.6437 14.8124 16.3719 14.7299 16.1406 14.5754C15.9093 14.4209 15.7291 14.2012 15.6227 13.9443C15.5162 13.6873 15.4884 13.4046 15.5426 13.1318C15.5969 12.859 15.7308 12.6084 15.9275 12.4118C16.1242 12.2151 16.3747 12.0812 16.6475 12.0269C16.9203 11.9726 17.2031 12.0005 17.46 12.1069C17.717 12.2134 17.9366 12.3936 18.0911 12.6249C18.2456 12.8561 18.3281 13.128 18.3281 13.4061C18.3281 13.7791 18.18 14.1368 17.9162 14.4005C17.6525 14.6642 17.2948 14.8124 16.9219 14.8124Z" fill="white"/>
<path d="M2.15625 12.1514V7.77881C2.15625 6.82651 2.68359 5.22998 4.51392 4.88413C6.06738 4.59277 7.60547 4.59277 7.60547 4.59277C7.60547 4.59277 8.61621 5.2959 7.78125 5.2959C6.94629 5.2959 6.96826 6.37256 7.78125 6.37256C8.59424 6.37256 7.78125 7.40527 7.78125 7.40527L4.50732 11.1187L2.15625 12.1514Z" fill="white"/>
</svg>
