<svg width="21" height="20" viewBox="0 0 21 20" fill="none" xmlns="http://www.w3.org/2000/svg">
<g clip-path="url(#clip0_10_483)">
<path d="M4.04154 0.499992H16.9582C18.9165 0.499992 20.4999 2.08333 20.4999 4.04166V16.4583C20.4999 18.4167 18.9165 20 16.9582 20H4.04154C2.08321 20 0.499878 18.4167 0.499878 16.4583V4.04166C0.499878 2.08333 2.08321 0.499992 4.04154 0.499992Z" fill="#470137"/>
<path d="M11.0166 5.625L8.5166 9.75L11.1833 14.125C11.1999 14.1583 11.2083 14.1917 11.1999 14.225C11.1916 14.2583 11.1583 14.2333 11.1083 14.2417H9.19993C9.0666 14.2417 8.97493 14.2333 8.9166 14.15C8.7416 13.8 8.55827 13.4583 8.38327 13.1083C8.20827 12.7667 8.0166 12.4167 7.8166 12.0583C7.6166 11.7 7.4166 11.3417 7.2166 10.975H7.19993C7.02493 11.3333 6.83327 11.6917 6.6416 12.05C6.44993 12.4083 6.25827 12.7667 6.07493 13.1167C5.88327 13.4667 5.6916 13.825 5.49993 14.1667C5.4666 14.25 5.39993 14.2583 5.30827 14.2583H3.47493C3.4416 14.2583 3.4166 14.275 3.4166 14.2333C3.40827 14.2 3.4166 14.1667 3.43327 14.1417L6.02493 9.89167L3.49993 5.61667C3.47493 5.58333 3.4666 5.55 3.48327 5.53333C3.49993 5.50833 3.53327 5.5 3.5666 5.5H5.45827C5.49993 5.5 5.5416 5.50833 5.57493 5.51667C5.60827 5.53333 5.63327 5.55833 5.65827 5.59167C5.8166 5.95 5.99993 6.30833 6.1916 6.66667C6.3916 7.025 6.58327 7.375 6.7916 7.725C6.9916 8.075 7.17493 8.425 7.34993 8.78333H7.3666C7.5416 8.41667 7.72493 8.05833 7.90827 7.70833C8.0916 7.35833 8.28327 7.00833 8.47493 6.65833C8.6666 6.30833 8.84993 5.95 9.03327 5.60833C9.0416 5.575 9.05827 5.54167 9.08327 5.525C9.1166 5.50833 9.14993 5.5 9.1916 5.50833H10.9499C10.9916 5.5 11.0333 5.525 11.0416 5.56667C11.0499 5.575 11.0333 5.60833 11.0166 5.625Z" fill="#FF61F6"/>
<path d="M14.8666 14.4167C14.2499 14.425 13.6332 14.3 13.0749 14.0417C12.5499 13.8 12.1166 13.4 11.8166 12.9083C11.5082 12.4 11.3582 11.7667 11.3582 11.0083C11.3499 10.3917 11.5082 9.78334 11.8166 9.25001C12.1332 8.70834 12.5916 8.25834 13.1416 7.95834C13.7249 7.63334 14.4249 7.47501 15.2499 7.47501C15.2916 7.47501 15.3499 7.47501 15.4249 7.48334C15.4999 7.49167 15.5832 7.49167 15.6832 7.50001V4.86667C15.6832 4.80834 15.7082 4.77501 15.7666 4.77501H17.4582C17.4999 4.76667 17.5332 4.80001 17.5416 4.83334C17.5416 4.84167 17.5416 4.85001 17.5416 4.85001V12.7833C17.5416 12.9333 17.5499 13.1 17.5582 13.2833C17.5749 13.4583 17.5832 13.625 17.5916 13.7667C17.5916 13.825 17.5666 13.875 17.5082 13.9C17.0749 14.0833 16.6166 14.2167 16.1499 14.3C15.7249 14.375 15.2999 14.4167 14.8666 14.4167ZM15.6832 12.75V9.08334C15.6082 9.06667 15.5332 9.05001 15.4582 9.04167C15.3666 9.03334 15.2749 9.02501 15.1832 9.02501C14.8582 9.02501 14.5332 9.09167 14.2416 9.24167C13.9582 9.38334 13.7166 9.59167 13.5332 9.85834C13.3499 10.125 13.2582 10.4833 13.2582 10.9167C13.2499 11.2083 13.2999 11.5 13.3999 11.775C13.4832 12 13.6082 12.2 13.7749 12.3667C13.9332 12.5167 14.1249 12.6333 14.3416 12.7C14.5666 12.775 14.7999 12.8083 15.0332 12.8083C15.1582 12.8083 15.2749 12.8 15.3832 12.7917C15.4916 12.8 15.5832 12.7833 15.6832 12.75Z" fill="#FF61F6"/>
</g>
<defs>
<clipPath id="clip0_10_483">
<rect width="20" height="19.5" fill="white" transform="translate(0.499878 0.499992)"/>
</clipPath>
</defs>
</svg>
