<svg width="16" height="15" viewBox="0 0 16 15" fill="none" xmlns="http://www.w3.org/2000/svg">
<path d="M8 1.40607C4.63994 1.40607 1.90625 4.13976 1.90625 7.49982C1.90625 10.8599 4.63994 13.5936 8 13.5936C11.3601 13.5936 14.0937 10.8599 14.0937 7.49982C14.0937 4.13976 11.3601 1.40607 8 1.40607ZM11.1714 5.45753L7.23389 10.145C7.19069 10.1965 7.13695 10.238 7.07629 10.2669C7.01564 10.2958 6.94949 10.3112 6.88232 10.3123H6.87441C6.80871 10.3123 6.74375 10.2985 6.68374 10.2717C6.62373 10.245 6.57001 10.2059 6.52607 10.157L4.83857 8.28204C4.79572 8.23659 4.76238 8.18302 4.74052 8.1245C4.71866 8.06598 4.70872 8.00367 4.71128 7.94126C4.71384 7.87883 4.72886 7.81756 4.75544 7.76102C4.78202 7.70449 4.81964 7.65383 4.86608 7.61205C4.91251 7.57026 4.96684 7.53817 5.02585 7.51767C5.08487 7.49718 5.14738 7.48869 5.20973 7.4927C5.27207 7.49671 5.33298 7.51314 5.38889 7.54103C5.44479 7.56891 5.49455 7.60769 5.53525 7.65509L6.86211 9.12931L10.4536 4.8546C10.5342 4.76146 10.6482 4.70376 10.7709 4.69398C10.8937 4.6842 11.0153 4.72312 11.1096 4.80233C11.2039 4.88153 11.2633 4.99467 11.2748 5.11727C11.2864 5.23988 11.2492 5.3621 11.1714 5.45753Z" fill="#68D391"/>
</svg>
