<svg width="20" height="20" viewBox="0 0 20 20" fill="none" xmlns="http://www.w3.org/2000/svg">
<g clip-path="url(#clip0_10_819)">
<path d="M10.0001 0C4.47709 0 0.00012207 4.47697 0.00012207 10C0.00012207 15.523 4.47709 20 10.0001 20C15.5232 20 20.0001 15.523 20.0001 10C20.0001 4.47765 15.5232 0.000682361 10.0001 0ZM14.5863 14.4224C14.4068 14.7172 14.0226 14.8093 13.7292 14.6298C11.3812 13.1948 8.42523 12.8707 4.94451 13.6656C4.60879 13.7427 4.27443 13.5326 4.19801 13.1969C4.1209 12.8611 4.33038 12.5268 4.66679 12.4504C8.47573 11.5803 11.7436 11.955 14.3795 13.5653C14.6729 13.7462 14.7664 14.129 14.5863 14.4224ZM15.8097 11.7004C15.5839 12.0676 15.1035 12.1822 14.7371 11.957C12.0499 10.305 7.95167 9.82668 4.77255 10.7915C4.36041 10.9164 3.92506 10.6837 3.79951 10.2723C3.67532 9.86012 3.908 9.42545 4.31947 9.2999C7.95099 8.19788 12.4662 8.73149 15.5525 10.6285C15.9196 10.8543 16.0356 11.334 15.8097 11.7004ZM15.9148 8.86455C12.6914 6.95053 7.3744 6.77448 4.29695 7.70795C3.80292 7.85807 3.28023 7.57898 3.13079 7.08495C2.98136 6.59092 3.25976 6.06824 3.75447 5.91812C7.28706 4.84613 13.1588 5.05288 16.8694 7.25554C17.3137 7.51962 17.4597 8.09348 17.1963 8.53702C16.9336 8.98192 16.3584 9.12862 15.9148 8.86455Z" fill="#2EBD59"/>
</g>
<defs>
<clipPath id="clip0_10_819">
<rect width="20" height="20" fill="white"/>
</clipPath>
</defs>
</svg>
