<svg width="21" height="20" viewBox="0 0 21 20" fill="none" xmlns="http://www.w3.org/2000/svg">
<path d="M6.42663 9.23898C6.33486 9.11916 6.19936 9.04058 6.04979 9.02043C5.90022 9.00028 5.74876 9.0402 5.62855 9.13146C5.55783 9.18723 5.50079 9.25842 5.46177 9.3396L0.561634 19.1426C0.492231 19.2815 0.480831 19.4423 0.52994 19.5897C0.579049 19.737 0.684648 19.8588 0.823525 19.9283C0.904702 19.9694 0.994447 19.9906 1.08542 19.9903H7.91252C8.02187 19.9931 8.12966 19.964 8.2227 19.9064C8.31573 19.8489 8.38996 19.7655 8.43631 19.6664C9.90979 16.6229 9.01661 11.9957 6.42663 9.23898Z" fill="url(#paint0_linear_10_689)"/>
<path d="M10.0283 0.318096C8.80673 2.19786 8.09483 4.36289 7.9624 6.60078C7.82998 8.83867 8.28159 11.0726 9.27294 13.0833L12.5645 19.6664C12.6131 19.7637 12.6879 19.8455 12.7804 19.9027C12.8729 19.9599 12.9795 19.9903 13.0883 19.9903H19.914C19.991 19.9905 20.0673 19.9755 20.1384 19.9461C20.2096 19.9167 20.2742 19.8736 20.3287 19.8191C20.3831 19.7647 20.4262 19.7001 20.4556 19.6289C20.485 19.5577 20.5 19.4815 20.4998 19.4045C20.4999 19.3137 20.4791 19.2241 20.4392 19.1426L11.0249 0.31534C10.9802 0.220998 10.9096 0.141281 10.8214 0.0854577C10.7332 0.0296347 10.631 0 10.5266 0C10.4222 0 10.3199 0.0296347 10.2317 0.0854577C10.1435 0.141281 10.073 0.220998 10.0283 0.31534V0.318096Z" fill="#2684FF"/>
<defs>
<linearGradient id="paint0_linear_10_689" x1="9.12412" y1="10.7373" x2="3.94969" y2="19.6995" gradientUnits="userSpaceOnUse">
<stop stop-color="#0052CC"/>
<stop offset="0.92" stop-color="#2684FF"/>
</linearGradient>
</defs>
</svg>
