<svg width="21" height="21" viewBox="0 0 21 21" fill="none" xmlns="http://www.w3.org/2000/svg">
<g clip-path="url(#clip0_10_856)">
<path d="M20.2592 9.91897L11.3965 0.989848L10.5377 0.124634L3.866 6.84626L0.8152 9.91897C0.662814 10.0733 0.577271 10.2821 0.577271 10.4998C0.577271 10.7175 0.662814 10.9263 0.8152 11.0806L6.91037 17.2214L10.5377 20.875L17.2084 14.1533L17.3123 14.0496L20.2592 11.0853C20.3356 11.0089 20.3962 10.918 20.4376 10.8179C20.4789 10.7179 20.5002 10.6105 20.5002 10.5021C20.5002 10.3937 20.4789 10.2864 20.4376 10.1863C20.3962 10.0862 20.3356 9.99535 20.2592 9.91897ZM10.5377 13.5679L7.4924 10.4998L10.5377 7.43171L13.5821 10.4998L10.5377 13.5679Z" fill="#2684FF"/>
<path d="M10.5373 7.43191C9.57954 6.46722 9.03964 5.15988 9.0355 3.79546C9.03137 2.43103 9.56334 1.1204 10.5152 0.149841L3.85181 6.86035L7.4782 10.5139L10.5373 7.43191Z" fill="url(#paint0_linear_10_856)"/>
<path d="M13.59 10.4917L10.5374 13.5681C11.4987 14.5369 12.0388 15.8508 12.0388 17.2207C12.0388 18.5906 11.4987 19.9045 10.5374 20.8733L17.2191 14.1452L13.59 10.4917Z" fill="url(#paint1_linear_10_856)"/>
</g>
<defs>
<linearGradient id="paint0_linear_10_856" x1="9.99203" y1="4.3277" x2="5.70777" y2="8.5792" gradientUnits="userSpaceOnUse">
<stop offset="0.18" stop-color="#0052CC"/>
<stop offset="1" stop-color="#2684FF"/>
</linearGradient>
<linearGradient id="paint1_linear_10_856" x1="776.603" y1="900.925" x2="1212.74" y2="1181.57" gradientUnits="userSpaceOnUse">
<stop offset="0.18" stop-color="#0052CC"/>
<stop offset="1" stop-color="#2684FF"/>
</linearGradient>
<clipPath id="clip0_10_856">
<rect width="20" height="21" fill="white" transform="translate(0.499878 -0.000793457)"/>
</clipPath>
</defs>
</svg>
