<svg width="21" height="21" viewBox="0 0 21 21" fill="none" xmlns="http://www.w3.org/2000/svg">
<g clip-path="url(#clip0_10_782)">
<path fill-rule="evenodd" clip-rule="evenodd" d="M7.83253 -0.000793457C6.72696 4.24247e-05 5.83221 0.917841 5.83302 2.04879C5.83221 3.17974 6.72778 4.09753 7.83335 4.09837H9.83368V2.04962C9.8345 0.918676 8.93892 0.000878306 7.83253 -0.000793457C7.83335 -0.000793457 7.83335 -0.000793457 7.83253 -0.000793457V-0.000793457ZM7.83253 5.46587H2.49996C1.39439 5.46671 0.498819 6.38451 0.499636 7.51546C0.498002 8.6464 1.39357 9.5642 2.49915 9.56587H7.83253C8.93811 9.56504 9.83368 8.64724 9.83286 7.51629C9.83368 6.38451 8.93811 5.46671 7.83253 5.46587Z" fill="#36C5F0"/>
<path fill-rule="evenodd" clip-rule="evenodd" d="M20.4999 7.51625C20.5007 6.3853 19.6051 5.4675 18.4995 5.46667C17.394 5.4675 16.4984 6.3853 16.4992 7.51625V9.56667H18.4995C19.6051 9.56583 20.5007 8.64803 20.4999 7.51625ZM15.1665 7.51625V2.04958C15.1673 0.91947 14.2725 0.00167176 13.167 0C12.0614 0.000835882 11.1658 0.918634 11.1666 2.04958V7.51625C11.165 8.6472 12.0606 9.56499 13.1661 9.56667C14.2717 9.56583 15.1673 8.64803 15.1665 7.51625Z" fill="#2EB67D"/>
<path fill-rule="evenodd" clip-rule="evenodd" d="M13.1662 20.5C14.2718 20.4992 15.1674 19.5814 15.1665 18.4504C15.1674 17.3195 14.2718 16.4017 13.1662 16.4008H11.1659V18.4504C11.1651 19.5805 12.0606 20.4983 13.1662 20.5ZM13.1662 15.0325H18.4996C19.6052 15.0317 20.5008 14.1139 20.4999 12.9829C20.5016 11.852 19.606 10.9342 18.5004 10.9325H13.167C12.0615 10.9333 11.1659 11.8511 11.1667 12.9821C11.1659 14.1139 12.0606 15.0317 13.1662 15.0325Z" fill="#ECB22E"/>
<path fill-rule="evenodd" clip-rule="evenodd" d="M0.499878 12.9829C0.499061 14.1139 1.39463 15.0317 2.50021 15.0325C3.60578 15.0317 4.50135 14.1139 4.50053 12.9829V10.9333H2.50021C1.39463 10.9342 0.499061 11.852 0.499878 12.9829ZM5.83327 12.9829V18.4496C5.83163 19.5805 6.7272 20.4983 7.83278 20.5C8.93835 20.4992 9.83392 19.5814 9.8331 18.4504V12.9846C9.83474 11.8536 8.93917 10.9358 7.83359 10.9342C6.7272 10.9342 5.83245 11.852 5.83327 12.9829C5.83327 12.9837 5.83327 12.9829 5.83327 12.9829Z" fill="#E01E5A"/>
</g>
<defs>
<clipPath id="clip0_10_782">
<rect width="20" height="20.5" fill="white" transform="translate(0.499878 -0.000793457)"/>
</clipPath>
</defs>
</svg>
