<svg width="36" height="36" viewBox="0 0 36 36" fill="none" xmlns="http://www.w3.org/2000/svg">
<g filter="url(#filter0_d_10_185)">
<rect x="5.49927" y="2" width="25" height="25" rx="6" fill="#4FD1C5"/>
</g>
<path d="M23.2138 11.1928C23.1857 11.1381 23.1451 11.0909 23.0952 11.0548C23.0453 11.0188 22.9877 10.9951 22.9269 10.9856C22.8661 10.976 22.804 10.981 22.7455 11.0001C22.687 11.0191 22.6338 11.0517 22.5903 11.0952L21.0903 12.5962C21.0167 12.6687 20.9174 12.7094 20.8141 12.7094C20.7107 12.7094 20.6115 12.6687 20.5378 12.5962L19.8894 11.9468C19.8531 11.9105 19.8243 11.8674 19.8047 11.82C19.785 11.7726 19.7749 11.7218 19.7749 11.6705C19.7749 11.6192 19.785 11.5684 19.8047 11.521C19.8243 11.4736 19.8531 11.4305 19.8894 11.3943L21.383 9.90037C21.4278 9.8556 21.461 9.80061 21.4798 9.74015C21.4986 9.67969 21.5025 9.61556 21.491 9.55329C21.4795 9.49102 21.4531 9.43248 21.4139 9.3827C21.3748 9.33293 21.3241 9.29341 21.2663 9.26756C20.1382 8.76316 18.73 9.02635 17.842 9.90769C17.0876 10.6567 16.8628 11.8271 17.2256 13.1189C17.2451 13.1878 17.2452 13.2607 17.2259 13.3297C17.2065 13.3986 17.1685 13.4608 17.1159 13.5095L13.0515 17.2217C12.8932 17.3638 12.7654 17.5368 12.6761 17.7299C12.5868 17.9231 12.5378 18.1324 12.5321 18.3451C12.5263 18.5578 12.564 18.7695 12.6427 18.9672C12.7215 19.1648 12.8397 19.3444 12.9901 19.4949C13.1405 19.6454 13.3201 19.7637 13.5177 19.8425C13.7154 19.9214 13.927 19.9591 14.1397 19.9535C14.3525 19.9478 14.5618 19.8989 14.755 19.8097C14.9482 19.7205 15.1212 19.5928 15.2634 19.4345L19.0154 15.3611C19.0633 15.3092 19.1245 15.2714 19.1923 15.2517C19.2602 15.2321 19.3321 15.2313 19.4004 15.2495C19.7681 15.3503 20.1475 15.4025 20.5288 15.405C21.3442 15.405 22.0598 15.1411 22.5759 14.6325C23.5317 13.6909 23.6775 12.0937 23.2138 11.1928ZM14.1792 19.1672C14.0184 19.1848 13.8561 19.152 13.7147 19.0734C13.5734 18.9948 13.4599 18.8742 13.39 18.7284C13.32 18.5825 13.2971 18.4186 13.3243 18.2591C13.3515 18.0997 13.4275 17.9526 13.5419 17.8382C13.6562 17.7239 13.8033 17.6478 13.9627 17.6205C14.1221 17.5932 14.2861 17.6161 14.432 17.686C14.5778 17.7559 14.6984 17.8693 14.7771 18.0107C14.8557 18.152 14.8886 18.3143 14.8711 18.4751C14.8518 18.652 14.7727 18.817 14.6469 18.9429C14.5211 19.0688 14.3561 19.1479 14.1792 19.1672Z" fill="white"/>
<defs>
<filter id="filter0_d_10_185" x="-0.000732899" y="-2.38419e-07" width="36" height="36" filterUnits="userSpaceOnUse" color-interpolation-filters="sRGB">
<feFlood flood-opacity="0" result="BackgroundImageFix"/>
<feColorMatrix in="SourceAlpha" type="matrix" values="0 0 0 0 0 0 0 0 0 0 0 0 0 0 0 0 0 0 127 0" result="hardAlpha"/>
<feOffset dy="3.5"/>
<feGaussianBlur stdDeviation="2.75"/>
<feColorMatrix type="matrix" values="0 0 0 0 0 0 0 0 0 0 0 0 0 0 0 0 0 0 0.02 0"/>
<feBlend mode="normal" in2="BackgroundImageFix" result="effect1_dropShadow_10_185"/>
<feBlend mode="normal" in="SourceGraphic" in2="effect1_dropShadow_10_185" result="shape"/>
</filter>
</defs>
</svg>
