<svg width="36" height="36" viewBox="0 0 36 36" fill="none" xmlns="http://www.w3.org/2000/svg">
<g filter="url(#filter0_d_10_170)">
<rect x="5.49915" y="2" width="25" height="25" rx="6" fill="#4FD1C5"/>
</g>
<path d="M16.0469 19.1875C16.4783 19.1875 16.8281 18.8377 16.8281 18.4062C16.8281 17.9747 16.4783 17.625 16.0469 17.625C15.6154 17.625 15.2656 17.9747 15.2656 18.4062C15.2656 18.8377 15.6154 19.1875 16.0469 19.1875Z" fill="white"/>
<path d="M21.5156 19.1875C21.9471 19.1875 22.2969 18.8377 22.2969 18.4062C22.2969 17.9747 21.9471 17.625 21.5156 17.625C21.0842 17.625 20.7344 17.9747 20.7344 18.4062C20.7344 18.8377 21.0842 19.1875 21.5156 19.1875Z" fill="white"/>
<path d="M22.9023 11.1989C22.8475 11.1317 22.7783 11.0777 22.6999 11.0406C22.6216 11.0035 22.5359 10.9844 22.4492 10.9845H15.0188L14.8691 10.1354C14.8532 10.0449 14.8059 9.96301 14.7355 9.90399C14.6651 9.84496 14.5762 9.81262 14.4844 9.81264H12.9219C12.8183 9.81264 12.7189 9.85379 12.6457 9.92705C12.5724 10.0003 12.5312 10.0997 12.5312 10.2033C12.5312 10.3069 12.5724 10.4062 12.6457 10.4795C12.7189 10.5527 12.8183 10.5939 12.9219 10.5939H14.1567L15.2715 16.9118C15.2874 17.0022 15.3348 17.0841 15.4051 17.1432C15.4755 17.2022 15.5644 17.2345 15.6562 17.2345H21.9062C22.0098 17.2345 22.1092 17.1934 22.1825 17.1201C22.2557 17.0468 22.2969 16.9475 22.2969 16.8439C22.2969 16.7403 22.2557 16.6409 22.1825 16.5677C22.1092 16.4944 22.0098 16.4533 21.9062 16.4533H15.9839L15.8462 15.672H21.7461C21.8816 15.6718 22.0128 15.6249 22.1176 15.539C22.2224 15.4532 22.2944 15.3338 22.3213 15.2011L23.0244 11.6854C23.0414 11.6004 23.0392 11.5126 23.0181 11.4284C22.997 11.3443 22.9574 11.2659 22.9023 11.1989Z" fill="white"/>
<defs>
<filter id="filter0_d_10_170" x="-0.000854969" y="-2.38419e-07" width="36" height="36" filterUnits="userSpaceOnUse" color-interpolation-filters="sRGB">
<feFlood flood-opacity="0" result="BackgroundImageFix"/>
<feColorMatrix in="SourceAlpha" type="matrix" values="0 0 0 0 0 0 0 0 0 0 0 0 0 0 0 0 0 0 127 0" result="hardAlpha"/>
<feOffset dy="3.5"/>
<feGaussianBlur stdDeviation="2.75"/>
<feColorMatrix type="matrix" values="0 0 0 0 0 0 0 0 0 0 0 0 0 0 0 0 0 0 0.02 0"/>
<feBlend mode="normal" in2="BackgroundImageFix" result="effect1_dropShadow_10_170"/>
<feBlend mode="normal" in="SourceGraphic" in2="effect1_dropShadow_10_170" result="shape"/>
</filter>
</defs>
</svg>
