<svg width="36" height="36" viewBox="0 0 36 36" fill="none" xmlns="http://www.w3.org/2000/svg">
<g filter="url(#filter0_d_10_136)">
<rect x="5.49927" y="2" width="25" height="25" rx="6" fill="#4FD1C5"/>
</g>
<path d="M14.0815 10.7879H21.894C21.9853 10.7878 22.0765 10.7936 22.167 10.8052C22.1363 10.5898 22.0623 10.3829 21.9495 10.1969C21.8367 10.0108 21.6873 9.8496 21.5105 9.72284C21.3337 9.59609 21.133 9.50646 20.9206 9.45936C20.7082 9.41226 20.4885 9.40866 20.2747 9.44877L13.8496 10.5457H13.8423C13.439 10.6228 13.0803 10.851 12.8396 11.1836C13.2023 10.9257 13.6365 10.7873 14.0815 10.7879Z" fill="white"/>
<path d="M21.894 11.3749H14.0815C13.6673 11.3754 13.2701 11.5401 12.9772 11.8331C12.6843 12.126 12.5195 12.5231 12.519 12.9374V17.6249C12.5195 18.0392 12.6843 18.4363 12.9772 18.7293C13.2701 19.0222 13.6673 19.187 14.0815 19.1874H21.894C22.3083 19.187 22.7055 19.0222 22.9984 18.7293C23.2913 18.4363 23.4561 18.0392 23.4565 17.6249V12.9374C23.4561 12.5231 23.2913 12.126 22.9984 11.8331C22.7055 11.5401 22.3083 11.3754 21.894 11.3749ZM20.7344 16.0624C20.5799 16.0624 20.4288 16.0166 20.3003 15.9307C20.1719 15.8449 20.0717 15.7229 20.0126 15.5801C19.9535 15.4374 19.938 15.2803 19.9681 15.1287C19.9983 14.9772 20.0727 14.838 20.1819 14.7287C20.2912 14.6195 20.4304 14.5451 20.582 14.5149C20.7335 14.4848 20.8906 14.5002 21.0333 14.5594C21.1761 14.6185 21.2981 14.7186 21.384 14.8471C21.4698 14.9756 21.5156 15.1266 21.5156 15.2812C21.5156 15.4884 21.4333 15.6871 21.2868 15.8336C21.1403 15.9801 20.9416 16.0624 20.7344 16.0624Z" fill="white"/>
<path d="M12.5312 14.5841V12.1549C12.5312 11.6259 12.8242 10.7389 13.8411 10.5468C14.7041 10.3849 15.5586 10.3849 15.5586 10.3849C15.5586 10.3849 16.1201 10.7755 15.6562 10.7755C15.1924 10.7755 15.2046 11.3737 15.6562 11.3737C16.1079 11.3737 15.6562 11.9474 15.6562 11.9474L13.8374 14.0104L12.5312 14.5841Z" fill="white"/>
<defs>
<filter id="filter0_d_10_136" x="-0.000732899" y="-2.38419e-07" width="36" height="36" filterUnits="userSpaceOnUse" color-interpolation-filters="sRGB">
<feFlood flood-opacity="0" result="BackgroundImageFix"/>
<feColorMatrix in="SourceAlpha" type="matrix" values="0 0 0 0 0 0 0 0 0 0 0 0 0 0 0 0 0 0 127 0" result="hardAlpha"/>
<feOffset dy="3.5"/>
<feGaussianBlur stdDeviation="2.75"/>
<feColorMatrix type="matrix" values="0 0 0 0 0 0 0 0 0 0 0 0 0 0 0 0 0 0 0.02 0"/>
<feBlend mode="normal" in2="BackgroundImageFix" result="effect1_dropShadow_10_136"/>
<feBlend mode="normal" in="SourceGraphic" in2="effect1_dropShadow_10_136" result="shape"/>
</filter>
</defs>
</svg>
