<svg width="82" height="25" viewBox="0 0 82 25" fill="none" xmlns="http://www.w3.org/2000/svg">
<g clip-path="url(#clip0_92_18)">
<g clip-path="url(#clip1_92_18)">
<g clip-path="url(#clip2_92_18)">
<path d="M9.97247 9.62518C9.98545 9.61761 9.99621 9.60677 10.0037 9.59375C10.0112 9.58073 10.0151 9.56597 10.0151 9.55095C10.0151 9.53593 10.0112 9.52117 10.0037 9.50815C9.99621 9.49513 9.98545 9.48429 9.97247 9.47672L6.69095 7.5702C6.48098 7.44849 6.2426 7.3844 5.99991 7.3844C5.75722 7.3844 5.51883 7.44849 5.30886 7.5702L2.02798 9.47672C2.01501 9.48429 2.00425 9.49513 1.99677 9.50815C1.98929 9.52117 1.98535 9.53593 1.98535 9.55095C1.98535 9.56597 1.98929 9.58073 1.99677 9.59375C2.00425 9.60677 2.01501 9.61761 2.02798 9.62518L5.95704 11.9365C5.97026 11.9443 5.98532 11.9484 6.00066 11.9484C6.016 11.9484 6.03105 11.9443 6.04427 11.9365L9.97247 9.62518Z" fill="#2D3748"/>
<path d="M1.66016 10.2095C1.64705 10.2019 1.63218 10.1979 1.61705 10.1979C1.60192 10.198 1.58706 10.202 1.57398 10.2096C1.5609 10.2172 1.55006 10.2281 1.54256 10.2413C1.53505 10.2544 1.53115 10.2693 1.53125 10.2844V14.0203C1.53158 14.2004 1.57903 14.3772 1.66888 14.5332C1.75874 14.6892 1.88787 14.819 2.04344 14.9096L5.52735 16.9985C5.5404 17.0061 5.55521 17.01 5.57029 17.01C5.58537 17.01 5.60018 17.0061 5.61325 16.9985C5.62631 16.991 5.63716 16.9802 5.64471 16.9671C5.65225 16.9541 5.65624 16.9393 5.65625 16.9242V12.5897C5.65624 12.5746 5.65226 12.5598 5.64472 12.5468C5.63717 12.5337 5.62633 12.5229 5.61328 12.5154L1.66016 10.2095Z" fill="#2D3748"/>
<path d="M6.34375 12.6048V16.9232C6.34377 16.9382 6.34775 16.953 6.3553 16.9661C6.36285 16.9791 6.3737 16.99 6.38676 16.9975C6.39982 17.005 6.41463 17.009 6.42971 17.009C6.44479 17.009 6.4596 17.005 6.47266 16.9975L9.95635 14.9086C10.1118 14.8181 10.2409 14.6885 10.3308 14.5327C10.4206 14.3769 10.4682 14.2003 10.4687 14.0204V10.2845C10.4687 10.2694 10.4647 10.2546 10.4571 10.2416C10.4496 10.2286 10.4387 10.2178 10.4256 10.2103C10.4126 10.2028 10.3978 10.1988 10.3827 10.1989C10.3677 10.1989 10.3529 10.2028 10.3398 10.2104L6.38672 12.5307C6.3737 12.5382 6.36288 12.549 6.35534 12.562C6.3478 12.575 6.3438 12.5898 6.34375 12.6048Z" fill="#2D3748"/>
</g>
<path d="M17.9521 9.75006V14.4473H19.3389C20.0485 14.4473 20.5433 14.0974 20.8232 13.3975C20.9762 13.0134 21.0527 12.5561 21.0527 12.0255C21.0527 11.293 20.9372 10.7315 20.7061 10.3409C20.4782 9.947 20.0225 9.75006 19.3389 9.75006H17.9521ZM19.5928 8.50006C20.0387 8.50657 20.4098 8.55865 20.7061 8.65631C21.2106 8.82233 21.6191 9.12669 21.9316 9.5694C22.1823 9.92747 22.3532 10.3148 22.4443 10.7315C22.5355 11.1482 22.5811 11.5453 22.5811 11.9229C22.5811 12.8799 22.389 13.6905 22.0049 14.3546C21.484 15.2497 20.68 15.6973 19.5928 15.6973H16.4922V8.50006H19.5928ZM25.6865 12.9776H27.5127L26.6143 10.1456L25.6865 12.9776ZM25.7793 8.50006H27.4785L30.0273 15.6973H28.3965L27.9326 14.2178H25.2812L24.7832 15.6973H23.2109L25.7793 8.50006ZM32.0342 13.4756C32.0798 13.8044 32.1693 14.0502 32.3027 14.213C32.5469 14.5092 32.9652 14.6573 33.5576 14.6573C33.9124 14.6573 34.2005 14.6182 34.4219 14.5401C34.8418 14.3904 35.0518 14.112 35.0518 13.7051C35.0518 13.4675 34.9476 13.2836 34.7393 13.1534C34.5309 13.0264 34.2038 12.9141 33.7578 12.8165L32.9961 12.6456C32.2474 12.4763 31.7298 12.2924 31.4434 12.0938C30.9583 11.7618 30.7158 11.2426 30.7158 10.5362C30.7158 9.89166 30.9502 9.35618 31.4189 8.92975C31.8877 8.50332 32.5762 8.2901 33.4844 8.2901C34.2428 8.2901 34.889 8.49192 35.4229 8.89557C35.96 9.29596 36.2415 9.87864 36.2676 10.6436H34.8223C34.7962 10.2107 34.6074 9.90306 34.2559 9.72076C34.0215 9.60032 33.7301 9.5401 33.3818 9.5401C32.9945 9.5401 32.6852 9.61823 32.4541 9.77448C32.223 9.93073 32.1074 10.1488 32.1074 10.4288C32.1074 10.6859 32.2214 10.878 32.4492 11.0049C32.5957 11.0896 32.9082 11.1889 33.3867 11.3028L34.627 11.6006C35.1706 11.7309 35.5807 11.905 35.8574 12.1231C36.2871 12.4616 36.502 12.9516 36.502 13.5928C36.502 14.2504 36.2497 14.7973 35.7451 15.2335C35.2438 15.6664 34.5342 15.8829 33.6162 15.8829C32.6787 15.8829 31.9414 15.6697 31.4043 15.2432C30.8672 14.8135 30.5986 14.2243 30.5986 13.4756H32.0342ZM37.6055 15.6973V8.50006H39.0947V11.2442H41.9072V8.50006H43.4014V15.6973H41.9072V12.4844H39.0947V15.6973H37.6055ZM46.3018 9.75006V11.337H48.0693C48.3851 11.337 48.6406 11.2784 48.8359 11.1612C49.0345 11.0408 49.1338 10.8292 49.1338 10.5264C49.1338 10.1911 49.0036 9.96979 48.7432 9.86237C48.5186 9.7875 48.2321 9.75006 47.8838 9.75006H46.3018ZM46.3018 12.5284V14.4473H48.0693C48.3851 14.4473 48.6309 14.405 48.8066 14.3204C49.1257 14.1641 49.2852 13.8646 49.2852 13.4219C49.2852 13.0476 49.1305 12.7904 48.8213 12.6505C48.6488 12.5723 48.4062 12.5316 48.0938 12.5284H46.3018ZM48.3623 8.50006C49.2445 8.51308 49.8695 8.76862 50.2373 9.26666C50.4587 9.57265 50.5693 9.93886 50.5693 10.3653C50.5693 10.8047 50.4587 11.1579 50.2373 11.4249C50.1136 11.5746 49.9313 11.7113 49.6904 11.835C50.0583 11.9685 50.335 12.1801 50.5205 12.4698C50.7093 12.7595 50.8037 13.1111 50.8037 13.5245C50.8037 13.9509 50.6963 14.3334 50.4814 14.6719C50.3447 14.8965 50.1738 15.0853 49.9688 15.2383C49.7376 15.4141 49.4642 15.5346 49.1484 15.5997C48.8359 15.6648 48.4958 15.6973 48.1279 15.6973H44.8662V8.50006H48.3623ZM55.252 14.6231C55.8477 14.6231 56.3197 14.4034 56.668 13.9639C57.0195 13.5245 57.1953 12.8995 57.1953 12.0889C57.1953 11.2816 57.0195 10.6583 56.668 10.2188C56.3197 9.7761 55.8477 9.55475 55.252 9.55475C54.6562 9.55475 54.181 9.77448 53.8262 10.2139C53.4714 10.6534 53.2939 11.2784 53.2939 12.0889C53.2939 12.8995 53.4714 13.5245 53.8262 13.9639C54.181 14.4034 54.6562 14.6231 55.252 14.6231ZM58.6992 12.0889C58.6992 13.3812 58.3363 14.3708 57.6104 15.0577C57.0667 15.6176 56.2806 15.8975 55.252 15.8975C54.2233 15.8975 53.4372 15.6176 52.8936 15.0577C52.1644 14.3708 51.7998 13.3812 51.7998 12.0889C51.7998 10.7706 52.1644 9.78099 52.8936 9.12018C53.4372 8.56028 54.2233 8.28033 55.252 8.28033C56.2806 8.28033 57.0667 8.56028 57.6104 9.12018C58.3363 9.78099 58.6992 10.7706 58.6992 12.0889ZM61.8193 12.9776H63.6455L62.7471 10.1456L61.8193 12.9776ZM61.9121 8.50006H63.6113L66.1602 15.6973H64.5293L64.0654 14.2178H61.4141L60.916 15.6973H59.3438L61.9121 8.50006ZM68.582 9.75006V11.6837H70.2861C70.6247 11.6837 70.8786 11.6446 71.0479 11.5665C71.3473 11.4297 71.4971 11.1596 71.4971 10.7559C71.4971 10.3197 71.3522 10.0268 71.0625 9.87701C70.8997 9.79238 70.6556 9.75006 70.3301 9.75006H68.582ZM70.6426 8.50006C71.1471 8.50983 71.5345 8.57168 71.8047 8.68561C72.0781 8.79954 72.3092 8.96718 72.498 9.18854C72.6543 9.37083 72.778 9.57265 72.8691 9.79401C72.9603 10.0154 73.0059 10.2676 73.0059 10.5508C73.0059 10.8926 72.9196 11.2296 72.7471 11.5616C72.5745 11.8904 72.2897 12.1231 71.8926 12.2598C72.2246 12.3933 72.459 12.5837 72.5957 12.8311C72.7357 13.0753 72.8057 13.4496 72.8057 13.9542V14.4376C72.8057 14.7663 72.8187 14.9893 72.8447 15.1065C72.8838 15.2921 72.9749 15.4288 73.1182 15.5167V15.6973H71.4629C71.4173 15.5378 71.3848 15.4092 71.3652 15.3116C71.3262 15.1098 71.305 14.9031 71.3018 14.6915L71.292 14.0225C71.2855 13.5635 71.2008 13.2575 71.0381 13.1046C70.8786 12.9516 70.5775 12.8751 70.1348 12.8751H68.582V15.6973H67.1123V8.50006H70.6426ZM75.7646 9.75006V14.4473H77.1514C77.861 14.4473 78.3558 14.0974 78.6357 13.3975C78.7887 13.0134 78.8652 12.5561 78.8652 12.0255C78.8652 11.293 78.7497 10.7315 78.5186 10.3409C78.2907 9.947 77.835 9.75006 77.1514 9.75006H75.7646ZM77.4053 8.50006C77.8512 8.50657 78.2223 8.55865 78.5186 8.65631C79.0231 8.82233 79.4316 9.12669 79.7441 9.5694C79.9948 9.92747 80.1657 10.3148 80.2568 10.7315C80.348 11.1482 80.3936 11.5453 80.3936 11.9229C80.3936 12.8799 80.2015 13.6905 79.8174 14.3546C79.2965 15.2497 78.4925 15.6973 77.4053 15.6973H74.3047V8.50006H77.4053Z" fill="#2D3748"/>
</g>
<g clip-path="url(#clip3_92_18)">
<rect x="40.7476" y="24.1973" width="0.00478125" height="0.00478125" fill="#C4C4C4"/>
</g>
</g>
<defs>
<clipPath id="clip0_92_18">
<rect width="80.5" height="24.0048" fill="white" transform="translate(0.5 0.197327)"/>
</clipPath>
<clipPath id="clip1_92_18">
<rect width="80.5" height="15" fill="white" transform="translate(0.5 4.69733)"/>
</clipPath>
<clipPath id="clip2_92_18">
<rect width="11" height="11" fill="white" transform="translate(0.5 6.69733)"/>
</clipPath>
<clipPath id="clip3_92_18">
<rect width="24.0048" height="0.00476141" fill="white" transform="translate(28.7476 24.1973)"/>
</clipPath>
</defs>
</svg>
