<svg width="198" height="23" viewBox="0 0 198 23" fill="none" xmlns="http://www.w3.org/2000/svg">
<path d="M39.3457 13.8647H37.2061V17.4878H35.1143V7.41162H39.5029C40.5146 7.41162 41.3213 7.67139 41.9229 8.19092C42.5244 8.71045 42.8252 9.51481 42.8252 10.604C42.8252 11.7935 42.5244 12.6343 41.9229 13.1265C41.3213 13.6187 40.4622 13.8647 39.3457 13.8647ZM40.3301 11.7661C40.6035 11.5246 40.7402 11.1418 40.7402 10.6177C40.7402 10.0936 40.6012 9.71989 40.3232 9.49658C40.0498 9.27327 39.6647 9.16162 39.168 9.16162H37.2061V12.1284H39.168C39.6647 12.1284 40.0521 12.0076 40.3301 11.7661ZM50.3652 13.605V7.41162H52.5049V13.605C52.5049 14.6759 52.3385 15.5099 52.0059 16.1069C51.3861 17.2007 50.2035 17.7476 48.458 17.7476C46.7126 17.7476 45.5277 17.2007 44.9033 16.1069C44.5706 15.5099 44.4043 14.6759 44.4043 13.605V7.41162H46.5439V13.605C46.5439 14.2977 46.626 14.8035 46.79 15.1226C47.0452 15.6877 47.6012 15.9702 48.458 15.9702C49.3102 15.9702 49.8639 15.6877 50.1191 15.1226C50.2832 14.8035 50.3652 14.2977 50.3652 13.605ZM58.8008 13.5366H56.627V17.4878H54.5693V7.41162H59.5117C60.2181 7.42529 60.7604 7.51188 61.1387 7.67139C61.5215 7.83089 61.8451 8.06559 62.1094 8.37549C62.3281 8.6307 62.5013 8.91325 62.6289 9.22314C62.7565 9.53304 62.8203 9.88623 62.8203 10.2827C62.8203 10.7612 62.6995 11.2329 62.458 11.6978C62.2165 12.158 61.8177 12.4839 61.2617 12.6753C61.7266 12.8621 62.0547 13.1287 62.2461 13.4751C62.4421 13.8169 62.54 14.341 62.54 15.0474V15.7241C62.54 16.1844 62.5583 16.4966 62.5947 16.6606C62.6494 16.9204 62.777 17.1118 62.9775 17.2349V17.4878H60.6602C60.5964 17.2645 60.5508 17.0845 60.5234 16.9478C60.4688 16.6652 60.4391 16.3758 60.4346 16.0796L60.4209 15.1431C60.4118 14.5005 60.2933 14.0721 60.0654 13.8579C59.8421 13.6437 59.4206 13.5366 58.8008 13.5366ZM60.0791 11.7046C60.4984 11.5132 60.708 11.1349 60.708 10.5698C60.708 9.95915 60.5052 9.54899 60.0996 9.33936C59.8717 9.22087 59.5299 9.16162 59.0742 9.16162H56.627V11.8687H59.0127C59.4867 11.8687 59.8421 11.814 60.0791 11.7046ZM64.4746 7.41162H66.5664V17.4878H64.4746V7.41162ZM75.8564 7.41162V9.1958H72.8418V17.4878H70.7227V9.1958H67.6943V7.41162H75.8564ZM85.2285 7.41162L81.8584 13.7007V17.4878H79.7529V13.7007L76.2666 7.41162H78.748L80.8398 11.8003L82.8428 7.41162H85.2285ZM96.043 13.605V7.41162H98.1826V13.605C98.1826 14.6759 98.0163 15.5099 97.6836 16.1069C97.0638 17.2007 95.8812 17.7476 94.1357 17.7476C92.3903 17.7476 91.2054 17.2007 90.5811 16.1069C90.2484 15.5099 90.082 14.6759 90.082 13.605V7.41162H92.2217V13.605C92.2217 14.2977 92.3037 14.8035 92.4678 15.1226C92.723 15.6877 93.279 15.9702 94.1357 15.9702C94.988 15.9702 95.5417 15.6877 95.7969 15.1226C95.9609 14.8035 96.043 14.2977 96.043 13.605ZM100.035 7.41162H102.127V17.4878H100.035V7.41162ZM112.333 17.4878H107.992V7.41162H112.333C112.957 7.42074 113.477 7.49365 113.892 7.63037C114.598 7.86279 115.17 8.2889 115.607 8.90869C115.958 9.40999 116.198 9.95231 116.325 10.5356C116.453 11.119 116.517 11.675 116.517 12.2036C116.517 13.5435 116.248 14.6782 115.71 15.6079C114.981 16.8612 113.855 17.4878 112.333 17.4878ZM113.898 9.98193C113.575 9.43506 112.935 9.16162 111.978 9.16162H110.036V15.7378H111.978C112.971 15.7378 113.664 15.2479 114.056 14.2681C114.27 13.7303 114.377 13.09 114.377 12.3472C114.377 11.3218 114.217 10.5334 113.898 9.98193ZM124.009 15.4165H120.297L119.6 17.4878H117.398L120.994 7.41162H123.373L126.941 17.4878H124.658L124.009 15.4165ZM123.421 13.6802L122.163 9.71533L120.864 13.6802H123.421ZM131.884 16.0317C132.381 16.0317 132.784 15.9771 133.094 15.8677C133.682 15.658 133.976 15.2684 133.976 14.6987C133.976 14.366 133.83 14.1086 133.538 13.9263C133.246 13.7485 132.788 13.5913 132.164 13.4546L131.098 13.2153C130.049 12.9784 129.325 12.7209 128.924 12.4429C128.245 11.978 127.905 11.2511 127.905 10.2622C127.905 9.35986 128.233 8.61019 128.89 8.01318C129.546 7.41618 130.51 7.11768 131.781 7.11768C132.843 7.11768 133.748 7.40023 134.495 7.96533C135.247 8.52588 135.641 9.34163 135.678 10.4126H133.654C133.618 9.80648 133.354 9.37581 132.861 9.12061C132.533 8.95199 132.125 8.86768 131.638 8.86768C131.095 8.86768 130.662 8.97705 130.339 9.1958C130.015 9.41455 129.854 9.71989 129.854 10.1118C129.854 10.4718 130.013 10.7407 130.332 10.9185C130.537 11.0369 130.975 11.1759 131.645 11.3354L133.381 11.7524C134.142 11.9347 134.716 12.1785 135.104 12.4839C135.705 12.9578 136.006 13.6437 136.006 14.5415C136.006 15.4621 135.653 16.2277 134.946 16.8384C134.244 17.4445 133.251 17.7476 131.966 17.7476C130.653 17.7476 129.621 17.4491 128.869 16.8521C128.117 16.2505 127.741 15.4256 127.741 14.3774H129.751C129.815 14.8377 129.94 15.1818 130.127 15.4097C130.469 15.8244 131.054 16.0317 131.884 16.0317ZM143.573 17.4878V12.9897H139.636V17.4878H137.551V7.41162H139.636V11.2534H143.573V7.41162H145.665V17.4878H143.573ZM152.282 17.4878H147.716V7.41162H152.61C153.845 7.42985 154.72 7.7876 155.235 8.48486C155.545 8.91325 155.7 9.42594 155.7 10.0229C155.7 10.6382 155.545 11.1326 155.235 11.5063C155.062 11.716 154.807 11.9074 154.47 12.0806C154.985 12.2674 155.372 12.5636 155.632 12.9692C155.896 13.3748 156.028 13.867 156.028 14.4458C156.028 15.0428 155.878 15.5783 155.577 16.0522C155.386 16.3667 155.146 16.631 154.859 16.8452C154.536 17.0913 154.153 17.2599 153.711 17.3511C153.273 17.4422 152.797 17.4878 152.282 17.4878ZM152.234 13.0513H149.726V15.7378H152.2C152.642 15.7378 152.986 15.6785 153.232 15.5601C153.679 15.3413 153.902 14.922 153.902 14.3022C153.902 13.7782 153.686 13.4181 153.253 13.2222C153.011 13.1128 152.672 13.0558 152.234 13.0513ZM153.28 11.1304C153.554 10.9663 153.69 10.6724 153.69 10.2485C153.69 9.77913 153.508 9.46924 153.144 9.31885C152.829 9.21403 152.428 9.16162 151.94 9.16162H149.726V11.3833H152.2C152.642 11.3833 153.002 11.299 153.28 11.1304ZM162.256 17.7681C160.816 17.7681 159.715 17.3761 158.954 16.5923C157.933 15.6307 157.423 14.2453 157.423 12.436C157.423 10.5903 157.933 9.20492 158.954 8.27979C159.715 7.49593 160.816 7.104 162.256 7.104C163.696 7.104 164.797 7.49593 165.558 8.27979C166.574 9.20492 167.082 10.5903 167.082 12.436C167.082 14.2453 166.574 15.6307 165.558 16.5923C164.797 17.3761 163.696 17.7681 162.256 17.7681ZM164.245 15.061C164.733 14.4458 164.977 13.5708 164.977 12.436C164.977 11.3058 164.73 10.4331 164.238 9.81787C163.751 9.19808 163.09 8.88818 162.256 8.88818C161.422 8.88818 160.757 9.1958 160.26 9.81104C159.763 10.4263 159.515 11.3013 159.515 12.436C159.515 13.5708 159.763 14.4458 160.26 15.061C160.757 15.6763 161.422 15.9839 162.256 15.9839C163.09 15.9839 163.753 15.6763 164.245 15.061ZM174.595 15.4165H170.883L170.186 17.4878H167.984L171.58 7.41162H173.959L177.527 17.4878H175.244L174.595 15.4165ZM174.007 13.6802L172.749 9.71533L171.45 13.6802H174.007ZM183.092 13.5366H180.918V17.4878H178.86V7.41162H183.803C184.509 7.42529 185.051 7.51188 185.43 7.67139C185.812 7.83089 186.136 8.06559 186.4 8.37549C186.619 8.6307 186.792 8.91325 186.92 9.22314C187.048 9.53304 187.111 9.88623 187.111 10.2827C187.111 10.7612 186.991 11.2329 186.749 11.6978C186.507 12.158 186.109 12.4839 185.553 12.6753C186.018 12.8621 186.346 13.1287 186.537 13.4751C186.733 13.8169 186.831 14.341 186.831 15.0474V15.7241C186.831 16.1844 186.849 16.4966 186.886 16.6606C186.94 16.9204 187.068 17.1118 187.269 17.2349V17.4878H184.951C184.887 17.2645 184.842 17.0845 184.814 16.9478C184.76 16.6652 184.73 16.3758 184.726 16.0796L184.712 15.1431C184.703 14.5005 184.584 14.0721 184.356 13.8579C184.133 13.6437 183.712 13.5366 183.092 13.5366ZM184.37 11.7046C184.789 11.5132 184.999 11.1349 184.999 10.5698C184.999 9.95915 184.796 9.54899 184.391 9.33936C184.163 9.22087 183.821 9.16162 183.365 9.16162H180.918V11.8687H183.304C183.778 11.8687 184.133 11.814 184.37 11.7046ZM193.271 17.4878H188.93V7.41162H193.271C193.895 7.42074 194.414 7.49365 194.829 7.63037C195.535 7.86279 196.107 8.2889 196.545 8.90869C196.896 9.40999 197.135 9.95231 197.263 10.5356C197.39 11.119 197.454 11.675 197.454 12.2036C197.454 13.5435 197.185 14.6782 196.647 15.6079C195.918 16.8612 194.793 17.4878 193.271 17.4878ZM194.836 9.98193C194.512 9.43506 193.872 9.16162 192.915 9.16162H190.974V15.7378H192.915C193.909 15.7378 194.601 15.2479 194.993 14.2681C195.207 13.7303 195.314 13.09 195.314 12.3472C195.314 11.3218 195.155 10.5334 194.836 9.98193Z" fill="#2D3748"/>
<path d="M20.8795 0.604065H1.1219C0.502293 0.604065 0 1.07714 0 1.66071V10.5213C0 11.1049 0.502293 11.578 1.1219 11.578H5.17558V20.2691C5.17522 20.5492 5.29311 20.818 5.50329 21.0162C5.71347 21.2144 5.99869 21.3258 6.29611 21.3258H15.7039C16.3235 21.3258 16.8258 20.8527 16.8258 20.2691V11.5818H20.8795C21.1769 11.5818 21.4621 11.4705 21.6723 11.2723C21.8825 11.0741 22.0004 10.8053 22 10.5252V1.66071C22.0004 1.38059 21.8825 1.11183 21.6723 0.913629C21.4621 0.715431 21.1769 0.604065 20.8795 0.604065ZM1.30042 1.83014H10.3498V10.3532H1.30042V1.83014ZM15.5254 20.101H6.476V11.5818H15.5254V20.101ZM20.6996 10.3532H11.6502V1.83014H20.6996V10.3532Z" fill="#2D3748"/>
<path d="M7.44831 7.50259C7.70457 7.7291 8.10548 7.72311 8.35399 7.48906C8.60249 7.255 8.60885 6.87742 8.36835 6.63606L6.2907 4.67925C6.03595 4.44155 5.62542 4.44155 5.37066 4.67925L3.28752 6.63606C3.11436 6.78911 3.04345 7.01883 3.10248 7.23547C3.16151 7.4521 3.34112 7.62126 3.57114 7.67686C3.80115 7.73246 4.04506 7.66567 4.20756 7.50259L5.82519 5.97905L7.44831 7.50259Z" fill="#2D3748"/>
<path d="M14.5573 7.50259L16.1749 5.97905L17.7925 7.50259C18.0488 7.7291 18.4497 7.72311 18.6982 7.48906C18.9467 7.255 18.9531 6.87742 18.7126 6.63606L16.6349 4.67925C16.3801 4.44155 15.9696 4.44155 15.7149 4.67925L13.6372 6.63606C13.3967 6.87742 13.4031 7.255 13.6516 7.48906C13.9001 7.72311 14.301 7.7291 14.5573 7.50259Z" fill="#2D3748"/>
<path d="M9.38176 14.4272C9.12514 14.201 8.72423 14.2075 8.47609 14.4419C8.22795 14.6764 8.22219 15.054 8.46309 15.295L10.5407 17.2505C10.6626 17.3656 10.8281 17.4304 11.0008 17.4304C11.1734 17.4304 11.3389 17.3656 11.4608 17.2505L13.5384 15.295C13.703 15.1402 13.7674 14.9144 13.7074 14.7028C13.6474 14.4912 13.472 14.3257 13.2474 14.2689C13.0228 14.212 12.783 14.2724 12.6184 14.4272L11.0008 15.952L9.38176 14.4272Z" fill="#2D3748"/>
</svg>
