<svg width="16" height="17" viewBox="0 0 16 17" fill="none" xmlns="http://www.w3.org/2000/svg">
<path d="M5.49988 14.4999C6.05216 14.4999 6.49988 14.0522 6.49988 13.4999C6.49988 12.9477 6.05216 12.4999 5.49988 12.4999C4.94759 12.4999 4.49988 12.9477 4.49988 13.4999C4.49988 14.0522 4.94759 14.4999 5.49988 14.4999Z" fill="#4299E1"/>
<path d="M12.4999 14.4999C13.0522 14.4999 13.4999 14.0522 13.4999 13.4999C13.4999 12.9477 13.0522 12.4999 12.4999 12.4999C11.9477 12.4999 11.4999 12.9477 11.4999 13.4999C11.4999 14.0522 11.9477 14.4999 12.4999 14.4999Z" fill="#4299E1"/>
<path d="M14.2749 4.27454C14.2047 4.18862 14.1162 4.11942 14.0159 4.07196C13.9155 4.0245 13.8059 3.99998 13.6949 4.00017H4.184L3.99244 2.91329C3.97201 2.79752 3.91145 2.69265 3.82138 2.6171C3.73131 2.54154 3.6175 2.50014 3.49994 2.50017H1.49994C1.36733 2.50017 1.24015 2.55285 1.14639 2.64661C1.05262 2.74038 0.999939 2.86756 0.999939 3.00017C0.999939 3.13278 1.05262 3.25995 1.14639 3.35372C1.24015 3.44749 1.36733 3.50017 1.49994 3.50017H3.08056L4.50744 11.587C4.52786 11.7028 4.58843 11.8077 4.6785 11.8832C4.76857 11.9588 4.88238 12.0002 4.99994 12.0002H12.9999C13.1325 12.0002 13.2597 11.9475 13.3535 11.8537C13.4473 11.76 13.4999 11.6328 13.4999 11.5002C13.4999 11.3676 13.4473 11.2404 13.3535 11.1466C13.2597 11.0528 13.1325 11.0002 12.9999 11.0002H5.41931L5.24306 10.0002H12.7949C12.9683 9.99995 13.1363 9.93982 13.2705 9.82997C13.4047 9.72013 13.4968 9.5673 13.5312 9.39735L14.4312 4.89735C14.4529 4.78845 14.4501 4.67609 14.4231 4.56838C14.3961 4.46068 14.3455 4.36031 14.2749 4.27454Z" fill="#4299E1"/>
</svg>
