<svg width="75" height="75" viewBox="0 0 75 75" fill="none" xmlns="http://www.w3.org/2000/svg">
<g filter="url(#filter0_d_47_256)">
<rect x="5.5" y="2" width="64" height="64" rx="12" fill="#4FD1C5"/>
</g>
<path d="M29.3494 26.2788H45.5993C45.7892 26.2787 45.9788 26.2907 46.1671 26.3148C46.1033 25.8668 45.9494 25.4364 45.7147 25.0495C45.48 24.6626 45.1694 24.3272 44.8016 24.0635C44.4338 23.7999 44.0165 23.6134 43.5747 23.5155C43.1329 23.4175 42.6758 23.41 42.231 23.4934L28.8669 25.775H28.8517C28.0128 25.9355 27.2668 26.4101 26.7661 27.102C27.5205 26.5654 28.4236 26.2776 29.3494 26.2788Z" fill="white"/>
<path d="M45.5996 27.4998H29.3496C28.4879 27.5008 27.6618 27.8435 27.0526 28.4528C26.4433 29.062 26.1006 29.8882 26.0996 30.7498V40.4998C26.1006 41.3615 26.4433 42.1876 27.0526 42.7969C27.6618 43.4062 28.4879 43.7489 29.3496 43.7498H45.5996C46.4613 43.7489 47.2874 43.4062 47.8967 42.7969C48.5059 42.1876 48.8487 41.3615 48.8496 40.4998V30.7498C48.8487 29.8882 48.5059 29.062 47.8967 28.4528C47.2874 27.8435 46.4613 27.5008 45.5996 27.4998ZM43.1875 37.2498C42.8661 37.2498 42.5519 37.1545 42.2847 36.976C42.0175 36.7974 41.8092 36.5436 41.6862 36.2467C41.5632 35.9497 41.531 35.623 41.5937 35.3078C41.6564 34.9926 41.8112 34.703 42.0384 34.4758C42.2657 34.2485 42.5553 34.0937 42.8705 34.031C43.1857 33.9683 43.5124 34.0005 43.8094 34.1235C44.1063 34.2465 44.3601 34.4548 44.5386 34.722C44.7172 34.9892 44.8125 35.3034 44.8125 35.6248C44.8125 36.0558 44.6413 36.4691 44.3365 36.7739C44.0318 37.0786 43.6185 37.2498 43.1875 37.2498Z" fill="white"/>
<path d="M26.125 34.1749V29.1222C26.125 28.0218 26.7344 26.1769 28.8494 25.7772C30.6445 25.4406 32.4219 25.4406 32.4219 25.4406C32.4219 25.4406 33.5898 26.2531 32.625 26.2531C31.6602 26.2531 31.6855 27.4972 32.625 27.4972C33.5645 27.4972 32.625 28.6906 32.625 28.6906L28.8418 32.9816L26.125 34.1749Z" fill="white"/>
<defs>
<filter id="filter0_d_47_256" x="0" y="-2.38419e-07" width="75" height="75" filterUnits="userSpaceOnUse" color-interpolation-filters="sRGB">
<feFlood flood-opacity="0" result="BackgroundImageFix"/>
<feColorMatrix in="SourceAlpha" type="matrix" values="0 0 0 0 0 0 0 0 0 0 0 0 0 0 0 0 0 0 127 0" result="hardAlpha"/>
<feOffset dy="3.5"/>
<feGaussianBlur stdDeviation="2.75"/>
<feColorMatrix type="matrix" values="0 0 0 0 0 0 0 0 0 0 0 0 0 0 0 0 0 0 0.02 0"/>
<feBlend mode="normal" in2="BackgroundImageFix" result="effect1_dropShadow_47_256"/>
<feBlend mode="normal" in="SourceGraphic" in2="effect1_dropShadow_47_256" result="shape"/>
</filter>
</defs>
</svg>
