<svg width="37" height="36" viewBox="0 0 37 36" fill="none" xmlns="http://www.w3.org/2000/svg">
<g filter="url(#filter0_d_10_155)">
<rect x="5.99951" y="2" width="25" height="25" rx="6" fill="#4FD1C5"/>
</g>
<path d="M23.9113 9.18465C23.9068 9.16306 23.8963 9.14319 23.881 9.12736C23.8656 9.11154 23.8461 9.10041 23.8246 9.0953C22.3947 8.74569 19.0907 9.99154 17.3007 11.7808C16.9814 12.0975 16.6904 12.4414 16.4308 12.8087C15.8788 12.7598 15.3268 12.8006 14.8564 13.0057C13.529 13.5899 13.1425 15.1143 13.0348 15.7701C13.0287 15.806 13.031 15.8428 13.0416 15.8777C13.0521 15.9125 13.0706 15.9444 13.0955 15.971C13.1205 15.9975 13.1513 16.0178 13.1854 16.0304C13.2196 16.043 13.2562 16.0475 13.2924 16.0435L15.424 15.8084C15.4255 15.9691 15.4352 16.1297 15.453 16.2894C15.4638 16.4003 15.513 16.504 15.5922 16.5824L16.4176 17.4058C16.4961 17.4849 16.5997 17.5342 16.7106 17.545C16.8694 17.5628 17.0291 17.5725 17.1889 17.5741L16.955 19.703C16.9511 19.7391 16.9556 19.7757 16.9682 19.8099C16.9809 19.844 17.0012 19.8748 17.0277 19.8997C17.0542 19.9247 17.0861 19.9431 17.1209 19.9537C17.1557 19.9642 17.1925 19.9666 17.2284 19.9605C17.883 19.8555 19.4101 19.4691 19.9909 18.1417C20.196 17.6712 20.238 17.1219 20.1906 16.5726C20.5587 16.313 20.9035 16.0219 21.2211 15.7025C23.0168 13.9159 24.2555 10.6856 23.9113 9.18465ZM19.4296 13.5711C19.2656 13.4073 19.1539 13.1985 19.1087 12.9711C19.0634 12.7438 19.0866 12.5081 19.1752 12.2939C19.2639 12.0798 19.4141 11.8967 19.6068 11.7679C19.7996 11.6391 20.0262 11.5703 20.258 11.5703C20.4898 11.5703 20.7164 11.6391 20.9091 11.7679C21.1018 11.8967 21.252 12.0798 21.3407 12.2939C21.4294 12.5081 21.4525 12.7438 21.4073 12.9711C21.362 13.1985 21.2503 13.4073 21.0863 13.5711C20.9776 13.68 20.8485 13.7664 20.7063 13.8253C20.5642 13.8843 20.4118 13.9146 20.258 13.9146C20.1041 13.9146 19.9517 13.8843 19.8096 13.8253C19.6675 13.7664 19.5383 13.68 19.4296 13.5711Z" fill="white"/>
<path d="M16.3616 18.0023C16.2278 18.1364 16.0132 18.1886 15.7549 18.2333C15.1746 18.3322 14.6621 17.8307 14.7664 17.244C14.8062 17.0216 14.9238 16.7098 14.9971 16.6366C15.0131 16.6209 15.0237 16.6006 15.0275 16.5785C15.0313 16.5564 15.028 16.5336 15.0182 16.5135C15.0083 16.4933 14.9924 16.4768 14.9726 16.4663C14.9528 16.4557 14.9302 16.4517 14.908 16.4547C14.5834 16.4944 14.2815 16.6416 14.0503 16.8727C13.4763 17.4471 13.4221 19.5787 13.4221 19.5787C13.4221 19.5787 15.5549 19.5245 16.1289 18.9501C16.3608 18.719 16.5081 18.4167 16.5471 18.0917C16.5562 17.9896 16.4319 17.9288 16.3616 18.0023Z" fill="white"/>
<defs>
<filter id="filter0_d_10_155" x="0.499511" y="-2.38419e-07" width="36" height="36" filterUnits="userSpaceOnUse" color-interpolation-filters="sRGB">
<feFlood flood-opacity="0" result="BackgroundImageFix"/>
<feColorMatrix in="SourceAlpha" type="matrix" values="0 0 0 0 0 0 0 0 0 0 0 0 0 0 0 0 0 0 127 0" result="hardAlpha"/>
<feOffset dy="3.5"/>
<feGaussianBlur stdDeviation="2.75"/>
<feColorMatrix type="matrix" values="0 0 0 0 0 0 0 0 0 0 0 0 0 0 0 0 0 0 0.02 0"/>
<feBlend mode="normal" in2="BackgroundImageFix" result="effect1_dropShadow_10_155"/>
<feBlend mode="normal" in="SourceGraphic" in2="effect1_dropShadow_10_155" result="shape"/>
</filter>
</defs>
</svg>
