<svg width="372" height="15" viewBox="0 0 372 15" fill="none" xmlns="http://www.w3.org/2000/svg">
<path d="M6.81836 6.26758C6.81836 6.02539 6.73633 5.80859 6.57227 5.61719C6.41211 5.42188 6.18945 5.32422 5.9043 5.32422C5.45898 5.32422 5.07227 5.58789 4.74414 6.11523C4.41992 6.63867 4.25781 7.16016 4.25781 7.67969C4.25781 8.0625 4.3418 8.35547 4.50977 8.55859C4.67773 8.75781 4.88867 8.85742 5.14258 8.85742C5.66992 8.85742 6.08008 8.55078 6.37305 7.9375C6.66992 7.32031 6.81836 6.76367 6.81836 6.26758ZM5.65234 11.752C4.01953 11.752 2.76172 11.2422 1.87891 10.2227C1.17188 9.40625 0.818359 8.46289 0.818359 7.39258C0.818359 6.11914 1.24805 5.03711 2.10742 4.14648C3.06055 3.1543 4.33984 2.6582 5.94531 2.6582C7.33594 2.6582 8.42969 3.00977 9.22656 3.71289C9.97266 4.37695 10.3457 5.23828 10.3457 6.29688C10.3457 7.1875 10.0781 7.94922 9.54297 8.58203C9.01172 9.21094 8.41602 9.52539 7.75586 9.52539C7.36914 9.52539 7.08398 9.43359 6.90039 9.25C6.7168 9.0625 6.625 8.83789 6.625 8.57617C6.625 8.5332 6.62891 8.48828 6.63672 8.44141C6.64453 8.39453 6.6543 8.3457 6.66602 8.29492C6.45898 8.74414 6.19727 9.0625 5.88086 9.25C5.56445 9.43359 5.23828 9.52539 4.90234 9.52539C4.42188 9.52539 4.03125 9.35156 3.73047 9.00391C3.43359 8.65625 3.28516 8.20898 3.28516 7.66211C3.28516 6.88477 3.53906 6.19922 4.04688 5.60547C4.55859 5.01172 5.10742 4.71484 5.69336 4.71484C6.0918 4.71484 6.41992 4.83008 6.67773 5.06055C6.93945 5.29102 7.07812 5.56836 7.09375 5.89258L7.38672 4.9082H8.24805L7.46875 7.47461C7.41016 7.67383 7.36719 7.83398 7.33984 7.95508C7.3125 8.07617 7.29883 8.18359 7.29883 8.27734C7.29883 8.45312 7.35156 8.58203 7.45703 8.66406C7.56641 8.74219 7.68945 8.78125 7.82617 8.78125C8.27148 8.78125 8.66992 8.54883 9.02148 8.08398C9.37695 7.61914 9.55469 7.01172 9.55469 6.26172C9.55469 5.35547 9.23828 4.64453 8.60547 4.12891C7.97266 3.60938 7.12109 3.34961 6.05078 3.34961C4.56641 3.34961 3.43164 3.7832 2.64648 4.65039C1.97461 5.38867 1.63867 6.31641 1.63867 7.43359C1.63867 8.41016 1.95898 9.23047 2.59961 9.89453C3.34961 10.6797 4.41797 11.0723 5.80469 11.0723C6.45312 11.0723 7.05664 10.9707 7.61523 10.7676C8.17383 10.5605 8.68555 10.2832 9.15039 9.93555L9.53711 10.4629C9.18555 10.7754 8.66016 11.0684 7.96094 11.3418C7.26172 11.6152 6.49219 11.752 5.65234 11.752ZM15.4023 11.5C15.4414 10.7773 15.5898 10.1484 15.8477 9.61328C16.1094 9.07812 16.6172 8.5918 17.3711 8.1543L18.4961 7.50391C19 7.21094 19.3535 6.96094 19.5566 6.75391C19.877 6.42969 20.0371 6.05859 20.0371 5.64062C20.0371 5.15234 19.8906 4.76562 19.5977 4.48047C19.3047 4.19141 18.9141 4.04688 18.4258 4.04688C17.7031 4.04688 17.2031 4.32031 16.9258 4.86719C16.7773 5.16016 16.6953 5.56641 16.6797 6.08594H15.6074C15.6191 5.35547 15.7539 4.75977 16.0117 4.29883C16.4688 3.48633 17.2754 3.08008 18.4316 3.08008C19.3926 3.08008 20.0938 3.33984 20.5352 3.85938C20.9805 4.37891 21.2031 4.95703 21.2031 5.59375C21.2031 6.26562 20.9668 6.83984 20.4941 7.31641C20.2207 7.59375 19.7305 7.92969 19.0234 8.32422L18.2207 8.76953C17.8379 8.98047 17.5371 9.18164 17.3184 9.37305C16.9277 9.71289 16.6816 10.0898 16.5801 10.5039H21.1621V11.5H15.4023ZM24.9531 3.10938C26.0391 3.10938 26.8242 3.55664 27.3086 4.45117C27.6836 5.14258 27.8711 6.08984 27.8711 7.29297C27.8711 8.43359 27.7012 9.37695 27.3613 10.123C26.8691 11.1934 26.0645 11.7285 24.9473 11.7285C23.9395 11.7285 23.1895 11.291 22.6973 10.416C22.2871 9.68555 22.082 8.70508 22.082 7.47461C22.082 6.52148 22.2051 5.70312 22.4512 5.01953C22.9121 3.74609 23.7461 3.10938 24.9531 3.10938ZM24.9414 10.7676C25.4883 10.7676 25.9238 10.5254 26.248 10.041C26.5723 9.55664 26.7344 8.6543 26.7344 7.33398C26.7344 6.38086 26.6172 5.59766 26.3828 4.98438C26.1484 4.36719 25.6934 4.05859 25.0176 4.05859C24.3965 4.05859 23.9414 4.35156 23.6523 4.9375C23.3672 5.51953 23.2246 6.37891 23.2246 7.51562C23.2246 8.37109 23.3164 9.05859 23.5 9.57812C23.7812 10.3711 24.2617 10.7676 24.9414 10.7676ZM28.7617 11.5C28.8008 10.7773 28.9492 10.1484 29.207 9.61328C29.4688 9.07812 29.9766 8.5918 30.7305 8.1543L31.8555 7.50391C32.3594 7.21094 32.7129 6.96094 32.916 6.75391C33.2363 6.42969 33.3965 6.05859 33.3965 5.64062C33.3965 5.15234 33.25 4.76562 32.957 4.48047C32.6641 4.19141 32.2734 4.04688 31.7852 4.04688C31.0625 4.04688 30.5625 4.32031 30.2852 4.86719C30.1367 5.16016 30.0547 5.56641 30.0391 6.08594H28.9668C28.9785 5.35547 29.1133 4.75977 29.3711 4.29883C29.8281 3.48633 30.6348 3.08008 31.791 3.08008C32.752 3.08008 33.4531 3.33984 33.8945 3.85938C34.3398 4.37891 34.5625 4.95703 34.5625 5.59375C34.5625 6.26562 34.3262 6.83984 33.8535 7.31641C33.5801 7.59375 33.0898 7.92969 32.3828 8.32422L31.5801 8.76953C31.1973 8.98047 30.8965 9.18164 30.6777 9.37305C30.2871 9.71289 30.041 10.0898 29.9395 10.5039H34.5215V11.5H28.7617ZM36.2148 5.55859V4.75C36.9766 4.67578 37.5078 4.55273 37.8086 4.38086C38.1094 4.20508 38.334 3.79297 38.4824 3.14453H39.3145V11.5H38.1895V5.55859H36.2148ZM42.7422 12.7246C43.0117 12.6777 43.2012 12.4883 43.3105 12.1562C43.3691 11.9805 43.3984 11.8105 43.3984 11.6465C43.3984 11.6191 43.3965 11.5938 43.3926 11.5703C43.3926 11.5508 43.3887 11.5273 43.3809 11.5H42.7422V10.2227H43.9961V11.4062C43.9961 11.8711 43.9023 12.2793 43.7148 12.6309C43.5273 12.9824 43.2031 13.1992 42.7422 13.2812V12.7246ZM49.3105 2.89258H50.9805L53.4531 10.1699L55.9082 2.89258H57.5605V11.5H56.4531V6.41992C56.4531 6.24414 56.457 5.95312 56.4648 5.54688C56.4727 5.14062 56.4766 4.70508 56.4766 4.24023L54.0215 11.5H52.8672L50.3945 4.24023V4.50391C50.3945 4.71484 50.3984 5.03711 50.4062 5.4707C50.418 5.90039 50.4238 6.2168 50.4238 6.41992V11.5H49.3105V2.89258ZM60.0039 9.83008C60.0039 10.1348 60.1152 10.375 60.3379 10.5508C60.5605 10.7266 60.8242 10.8145 61.1289 10.8145C61.5 10.8145 61.8594 10.7285 62.207 10.5566C62.793 10.2715 63.0859 9.80469 63.0859 9.15625V8.30664C62.957 8.38867 62.791 8.45703 62.5879 8.51172C62.3848 8.56641 62.1855 8.60547 61.9902 8.62891L61.3516 8.71094C60.9688 8.76172 60.6816 8.8418 60.4902 8.95117C60.166 9.13477 60.0039 9.42773 60.0039 9.83008ZM62.5586 7.69727C62.8008 7.66602 62.9629 7.56445 63.0449 7.39258C63.0918 7.29883 63.1152 7.16406 63.1152 6.98828C63.1152 6.62891 62.9863 6.36914 62.7285 6.20898C62.4746 6.04492 62.1094 5.96289 61.6328 5.96289C61.082 5.96289 60.6914 6.11133 60.4609 6.4082C60.332 6.57227 60.248 6.81641 60.209 7.14062H59.2246C59.2441 6.36719 59.4941 5.83008 59.9746 5.5293C60.459 5.22461 61.0195 5.07227 61.6562 5.07227C62.3945 5.07227 62.9941 5.21289 63.4551 5.49414C63.9121 5.77539 64.1406 6.21289 64.1406 6.80664V10.4219C64.1406 10.5312 64.1621 10.6191 64.2051 10.6855C64.252 10.752 64.3477 10.7852 64.4922 10.7852C64.5391 10.7852 64.5918 10.7832 64.6504 10.7793C64.709 10.7715 64.7715 10.7617 64.8379 10.75V11.5293C64.6738 11.5762 64.5488 11.6055 64.4629 11.6172C64.377 11.6289 64.2598 11.6348 64.1113 11.6348C63.748 11.6348 63.4844 11.5059 63.3203 11.248C63.2344 11.1113 63.1738 10.918 63.1387 10.668C62.9238 10.9492 62.6152 11.1934 62.2129 11.4004C61.8105 11.6074 61.3672 11.7109 60.8828 11.7109C60.3008 11.7109 59.8242 11.5352 59.4531 11.1836C59.0859 10.8281 58.9023 10.3848 58.9023 9.85352C58.9023 9.27148 59.084 8.82031 59.4473 8.5C59.8105 8.17969 60.2871 7.98242 60.877 7.9082L62.5586 7.69727ZM66.543 8.43555C66.543 9.10742 66.6855 9.66992 66.9707 10.123C67.2559 10.5762 67.7129 10.8027 68.3418 10.8027C68.8301 10.8027 69.2305 10.5938 69.543 10.1758C69.8594 9.75391 70.0176 9.15039 70.0176 8.36523C70.0176 7.57227 69.8555 6.98633 69.5312 6.60742C69.207 6.22461 68.8066 6.0332 68.3301 6.0332C67.7988 6.0332 67.3672 6.23633 67.0352 6.64258C66.707 7.04883 66.543 7.64648 66.543 8.43555ZM68.1309 5.11328C68.6113 5.11328 69.0137 5.21484 69.3379 5.41797C69.5254 5.53516 69.7383 5.74023 69.9766 6.0332V2.86328H70.9902V11.5H70.041V10.627C69.7949 11.0137 69.5039 11.293 69.168 11.4648C68.832 11.6367 68.4473 11.7227 68.0137 11.7227C67.3145 11.7227 66.709 11.4297 66.1973 10.8438C65.6855 10.2539 65.4297 9.4707 65.4297 8.49414C65.4297 7.58008 65.6621 6.78906 66.127 6.12109C66.5957 5.44922 67.2637 5.11328 68.1309 5.11328ZM75.168 5.08398C75.6133 5.08398 76.0449 5.18945 76.4629 5.40039C76.8809 5.60742 77.1992 5.87695 77.418 6.20898C77.6289 6.52539 77.7695 6.89453 77.8398 7.31641C77.9023 7.60547 77.9336 8.06641 77.9336 8.69922H73.334C73.3535 9.33594 73.5039 9.84766 73.7852 10.2344C74.0664 10.6172 74.502 10.8086 75.0918 10.8086C75.6426 10.8086 76.082 10.627 76.4102 10.2637C76.5977 10.0527 76.7305 9.80859 76.8086 9.53125H77.8457C77.8184 9.76172 77.7266 10.0195 77.5703 10.3047C77.418 10.5859 77.2461 10.8164 77.0547 10.9961C76.7344 11.3086 76.3379 11.5195 75.8652 11.6289C75.6113 11.6914 75.3242 11.7227 75.0039 11.7227C74.2227 11.7227 73.5605 11.4395 73.0176 10.873C72.4746 10.3027 72.2031 9.50586 72.2031 8.48242C72.2031 7.47461 72.4766 6.65625 73.0234 6.02734C73.5703 5.39844 74.2852 5.08398 75.168 5.08398ZM76.8496 7.86133C76.8066 7.4043 76.707 7.03906 76.5508 6.76562C76.2617 6.25781 75.7793 6.00391 75.1035 6.00391C74.6191 6.00391 74.2129 6.17969 73.8848 6.53125C73.5566 6.87891 73.3828 7.32227 73.3633 7.86133H76.8496ZM83.0605 5.22461L84.2676 10.1699L85.4922 5.22461H86.6758L87.9062 10.1406L89.1895 5.22461H90.2441L88.4219 11.5H87.3262L86.0488 6.64258L84.8125 11.5H83.7168L81.9062 5.22461H83.0605ZM91.2461 5.25391H92.3184V11.5H91.2461V5.25391ZM91.2461 2.89258H92.3184V4.08789H91.2461V2.89258ZM94.1289 3.47266H95.1953V5.22461H96.1973V6.08594H95.1953V10.1816C95.1953 10.4004 95.2695 10.5469 95.418 10.6211C95.5 10.6641 95.6367 10.6855 95.8281 10.6855C95.8789 10.6855 95.9336 10.6855 95.9922 10.6855C96.0508 10.6816 96.1191 10.6758 96.1973 10.668V11.5C96.0762 11.5352 95.9492 11.5605 95.8164 11.5762C95.6875 11.5918 95.5469 11.5996 95.3945 11.5996C94.9023 11.5996 94.5684 11.4746 94.3926 11.2246C94.2168 10.9707 94.1289 10.6426 94.1289 10.2402V6.08594H93.2793V5.22461H94.1289V3.47266ZM97.2578 2.86328H98.3125V6.07422C98.5625 5.75781 98.7871 5.53516 98.9863 5.40625C99.3262 5.18359 99.75 5.07227 100.258 5.07227C101.168 5.07227 101.785 5.39062 102.109 6.02734C102.285 6.375 102.373 6.85742 102.373 7.47461V11.5H101.289V7.54492C101.289 7.08398 101.23 6.74609 101.113 6.53125C100.922 6.1875 100.562 6.01562 100.035 6.01562C99.5977 6.01562 99.2012 6.16602 98.8457 6.4668C98.4902 6.76758 98.3125 7.33594 98.3125 8.17188V11.5H97.2578V2.86328ZM106.504 12.34H118.504V0.34H106.504V12.34ZM122.535 2.86328H123.561V5.98633C123.791 5.68555 124.066 5.45703 124.387 5.30078C124.707 5.14062 125.055 5.06055 125.43 5.06055C126.211 5.06055 126.844 5.33008 127.328 5.86914C127.816 6.4043 128.061 7.19531 128.061 8.24219C128.061 9.23438 127.82 10.0586 127.34 10.7148C126.859 11.3711 126.193 11.6992 125.342 11.6992C124.865 11.6992 124.463 11.584 124.135 11.3535C123.939 11.2168 123.73 10.998 123.508 10.6973V11.5H122.535V2.86328ZM125.277 10.7676C125.848 10.7676 126.273 10.541 126.555 10.0879C126.84 9.63477 126.982 9.03711 126.982 8.29492C126.982 7.63477 126.84 7.08789 126.555 6.6543C126.273 6.2207 125.857 6.00391 125.307 6.00391C124.826 6.00391 124.404 6.18164 124.041 6.53711C123.682 6.89258 123.502 7.47852 123.502 8.29492C123.502 8.88477 123.576 9.36328 123.725 9.73047C124.002 10.4219 124.52 10.7676 125.277 10.7676ZM133.217 5.22461H134.383C134.234 5.62695 133.904 6.54492 133.393 7.97852C133.01 9.05664 132.689 9.93555 132.432 10.6152C131.822 12.2168 131.393 13.1934 131.143 13.5449C130.893 13.8965 130.463 14.0723 129.854 14.0723C129.705 14.0723 129.59 14.0664 129.508 14.0547C129.43 14.043 129.332 14.0215 129.215 13.9902V13.0293C129.398 13.0801 129.531 13.1113 129.613 13.123C129.695 13.1348 129.768 13.1406 129.83 13.1406C130.025 13.1406 130.168 13.1074 130.258 13.041C130.352 12.9785 130.43 12.9004 130.492 12.8066C130.512 12.7754 130.582 12.6152 130.703 12.3262C130.824 12.0371 130.912 11.8223 130.967 11.6816L128.646 5.22461H129.842L131.523 10.334L133.217 5.22461ZM216.514 6.23828C216.885 5.97656 217.141 5.76367 217.281 5.59961C217.512 5.33398 217.627 5.03906 217.627 4.71484C217.627 4.46094 217.543 4.24219 217.375 4.05859C217.207 3.875 216.98 3.7832 216.695 3.7832C216.262 3.7832 215.961 3.92773 215.793 4.2168C215.707 4.36523 215.664 4.52734 215.664 4.70312C215.664 4.94141 215.729 5.16992 215.857 5.38867C215.99 5.60742 216.209 5.89062 216.514 6.23828ZM216.244 10.7734C216.678 10.7734 217.051 10.6738 217.363 10.4746C217.676 10.2754 217.916 10.0527 218.084 9.80664L216.139 7.43359C215.588 7.80078 215.229 8.08203 215.061 8.27734C214.803 8.57031 214.674 8.92773 214.674 9.34961C214.674 9.80664 214.84 10.1582 215.172 10.4043C215.508 10.6504 215.865 10.7734 216.244 10.7734ZM215.553 6.71289C215.189 6.29492 214.945 5.94336 214.82 5.6582C214.699 5.37305 214.639 5.09766 214.639 4.83203C214.639 4.27734 214.826 3.81836 215.201 3.45508C215.576 3.08789 216.078 2.9043 216.707 2.9043C217.305 2.9043 217.771 3.07422 218.107 3.41406C218.443 3.75391 218.611 4.16016 218.611 4.63281C218.611 5.18359 218.438 5.66602 218.09 6.08008C217.887 6.32227 217.547 6.60156 217.07 6.91797L218.641 8.79297C218.746 8.48047 218.818 8.24805 218.857 8.0957C218.9 7.93945 218.943 7.72266 218.986 7.44531H219.988C219.922 7.99609 219.789 8.52539 219.59 9.0332C219.391 9.53711 219.291 9.74023 219.291 9.64258L220.82 11.5H219.461L218.652 10.5156C218.332 10.8633 218.039 11.1172 217.773 11.2773C217.309 11.5586 216.773 11.6992 216.168 11.6992C215.273 11.6992 214.623 11.459 214.217 10.9785C213.811 10.4941 213.607 9.94922 213.607 9.34375C213.607 8.69141 213.805 8.14648 214.199 7.70898C214.441 7.44336 214.893 7.11133 215.553 6.71289ZM289.533 4.26953C289.549 3.83203 289.625 3.51172 289.762 3.30859C290.008 2.94922 290.482 2.76953 291.186 2.76953C291.252 2.76953 291.32 2.77148 291.391 2.77539C291.461 2.7793 291.541 2.78516 291.631 2.79297V3.75391C291.521 3.74609 291.441 3.74219 291.391 3.74219C291.344 3.73828 291.299 3.73633 291.256 3.73633C290.936 3.73633 290.744 3.82031 290.682 3.98828C290.619 4.15234 290.588 4.57422 290.588 5.25391H291.631V6.08594H290.576V11.5H289.533V6.08594H288.66V5.25391H289.533V4.26953ZM295.1 10.8203C295.799 10.8203 296.277 10.5566 296.535 10.0293C296.797 9.49805 296.928 8.9082 296.928 8.25977C296.928 7.67383 296.834 7.19727 296.646 6.83008C296.35 6.25195 295.838 5.96289 295.111 5.96289C294.467 5.96289 293.998 6.20898 293.705 6.70117C293.412 7.19336 293.266 7.78711 293.266 8.48242C293.266 9.15039 293.412 9.70703 293.705 10.1523C293.998 10.5977 294.463 10.8203 295.1 10.8203ZM295.141 5.04297C295.949 5.04297 296.633 5.3125 297.191 5.85156C297.75 6.39062 298.029 7.18359 298.029 8.23047C298.029 9.24219 297.783 10.0781 297.291 10.7383C296.799 11.3984 296.035 11.7285 295 11.7285C294.137 11.7285 293.451 11.4375 292.943 10.8555C292.436 10.2695 292.182 9.48438 292.182 8.5C292.182 7.44531 292.449 6.60547 292.984 5.98047C293.52 5.35547 294.238 5.04297 295.141 5.04297ZM299.318 5.22461H300.32V6.30859C300.402 6.09766 300.604 5.8418 300.924 5.54102C301.244 5.23633 301.613 5.08398 302.031 5.08398C302.051 5.08398 302.084 5.08594 302.131 5.08984C302.178 5.09375 302.258 5.10156 302.371 5.11328V6.22656C302.309 6.21484 302.25 6.20703 302.195 6.20312C302.145 6.19922 302.088 6.19727 302.025 6.19727C301.494 6.19727 301.086 6.36914 300.801 6.71289C300.516 7.05273 300.373 7.44531 300.373 7.89062V11.5H299.318V5.22461ZM307.434 9.83008C307.434 10.1348 307.545 10.375 307.768 10.5508C307.99 10.7266 308.254 10.8145 308.559 10.8145C308.93 10.8145 309.289 10.7285 309.637 10.5566C310.223 10.2715 310.516 9.80469 310.516 9.15625V8.30664C310.387 8.38867 310.221 8.45703 310.018 8.51172C309.814 8.56641 309.615 8.60547 309.42 8.62891L308.781 8.71094C308.398 8.76172 308.111 8.8418 307.92 8.95117C307.596 9.13477 307.434 9.42773 307.434 9.83008ZM309.988 7.69727C310.23 7.66602 310.393 7.56445 310.475 7.39258C310.521 7.29883 310.545 7.16406 310.545 6.98828C310.545 6.62891 310.416 6.36914 310.158 6.20898C309.904 6.04492 309.539 5.96289 309.062 5.96289C308.512 5.96289 308.121 6.11133 307.891 6.4082C307.762 6.57227 307.678 6.81641 307.639 7.14062H306.654C306.674 6.36719 306.924 5.83008 307.404 5.5293C307.889 5.22461 308.449 5.07227 309.086 5.07227C309.824 5.07227 310.424 5.21289 310.885 5.49414C311.342 5.77539 311.57 6.21289 311.57 6.80664V10.4219C311.57 10.5312 311.592 10.6191 311.635 10.6855C311.682 10.752 311.777 10.7852 311.922 10.7852C311.969 10.7852 312.021 10.7832 312.08 10.7793C312.139 10.7715 312.201 10.7617 312.268 10.75V11.5293C312.104 11.5762 311.979 11.6055 311.893 11.6172C311.807 11.6289 311.689 11.6348 311.541 11.6348C311.178 11.6348 310.914 11.5059 310.75 11.248C310.664 11.1113 310.604 10.918 310.568 10.668C310.354 10.9492 310.045 11.1934 309.643 11.4004C309.24 11.6074 308.797 11.7109 308.312 11.7109C307.73 11.7109 307.254 11.5352 306.883 11.1836C306.516 10.8281 306.332 10.3848 306.332 9.85352C306.332 9.27148 306.514 8.82031 306.877 8.5C307.24 8.17969 307.717 7.98242 308.307 7.9082L309.988 7.69727ZM316.562 2.86328H317.588V5.98633C317.818 5.68555 318.094 5.45703 318.414 5.30078C318.734 5.14062 319.082 5.06055 319.457 5.06055C320.238 5.06055 320.871 5.33008 321.355 5.86914C321.844 6.4043 322.088 7.19531 322.088 8.24219C322.088 9.23438 321.848 10.0586 321.367 10.7148C320.887 11.3711 320.221 11.6992 319.369 11.6992C318.893 11.6992 318.49 11.584 318.162 11.3535C317.967 11.2168 317.758 10.998 317.535 10.6973V11.5H316.562V2.86328ZM319.305 10.7676C319.875 10.7676 320.301 10.541 320.582 10.0879C320.867 9.63477 321.01 9.03711 321.01 8.29492C321.01 7.63477 320.867 7.08789 320.582 6.6543C320.301 6.2207 319.885 6.00391 319.334 6.00391C318.854 6.00391 318.432 6.18164 318.068 6.53711C317.709 6.89258 317.529 7.47852 317.529 8.29492C317.529 8.88477 317.604 9.36328 317.752 9.73047C318.029 10.4219 318.547 10.7676 319.305 10.7676ZM325.938 5.08398C326.383 5.08398 326.814 5.18945 327.232 5.40039C327.65 5.60742 327.969 5.87695 328.188 6.20898C328.398 6.52539 328.539 6.89453 328.609 7.31641C328.672 7.60547 328.703 8.06641 328.703 8.69922H324.104C324.123 9.33594 324.273 9.84766 324.555 10.2344C324.836 10.6172 325.271 10.8086 325.861 10.8086C326.412 10.8086 326.852 10.627 327.18 10.2637C327.367 10.0527 327.5 9.80859 327.578 9.53125H328.615C328.588 9.76172 328.496 10.0195 328.34 10.3047C328.188 10.5859 328.016 10.8164 327.824 10.9961C327.504 11.3086 327.107 11.5195 326.635 11.6289C326.381 11.6914 326.094 11.7227 325.773 11.7227C324.992 11.7227 324.33 11.4395 323.787 10.873C323.244 10.3027 322.973 9.50586 322.973 8.48242C322.973 7.47461 323.246 6.65625 323.793 6.02734C324.34 5.39844 325.055 5.08398 325.938 5.08398ZM327.619 7.86133C327.576 7.4043 327.477 7.03906 327.32 6.76562C327.031 6.25781 326.549 6.00391 325.873 6.00391C325.389 6.00391 324.982 6.17969 324.654 6.53125C324.326 6.87891 324.152 7.32227 324.133 7.86133H327.619ZM330.215 3.47266H331.281V5.22461H332.283V6.08594H331.281V10.1816C331.281 10.4004 331.355 10.5469 331.504 10.6211C331.586 10.6641 331.723 10.6855 331.914 10.6855C331.965 10.6855 332.02 10.6855 332.078 10.6855C332.137 10.6816 332.205 10.6758 332.283 10.668V11.5C332.162 11.5352 332.035 11.5605 331.902 11.5762C331.773 11.5918 331.633 11.5996 331.48 11.5996C330.988 11.5996 330.654 11.4746 330.479 11.2246C330.303 10.9707 330.215 10.6426 330.215 10.2402V6.08594H329.365V5.22461H330.215V3.47266ZM333.555 3.47266H334.621V5.22461H335.623V6.08594H334.621V10.1816C334.621 10.4004 334.695 10.5469 334.844 10.6211C334.926 10.6641 335.062 10.6855 335.254 10.6855C335.305 10.6855 335.359 10.6855 335.418 10.6855C335.477 10.6816 335.545 10.6758 335.623 10.668V11.5C335.502 11.5352 335.375 11.5605 335.242 11.5762C335.113 11.5918 334.973 11.5996 334.82 11.5996C334.328 11.5996 333.994 11.4746 333.818 11.2246C333.643 10.9707 333.555 10.6426 333.555 10.2402V6.08594H332.705V5.22461H333.555V3.47266ZM339.297 5.08398C339.742 5.08398 340.174 5.18945 340.592 5.40039C341.01 5.60742 341.328 5.87695 341.547 6.20898C341.758 6.52539 341.898 6.89453 341.969 7.31641C342.031 7.60547 342.062 8.06641 342.062 8.69922H337.463C337.482 9.33594 337.633 9.84766 337.914 10.2344C338.195 10.6172 338.631 10.8086 339.221 10.8086C339.771 10.8086 340.211 10.627 340.539 10.2637C340.727 10.0527 340.859 9.80859 340.938 9.53125H341.975C341.947 9.76172 341.855 10.0195 341.699 10.3047C341.547 10.5859 341.375 10.8164 341.184 10.9961C340.863 11.3086 340.467 11.5195 339.994 11.6289C339.74 11.6914 339.453 11.7227 339.133 11.7227C338.352 11.7227 337.689 11.4395 337.146 10.873C336.604 10.3027 336.332 9.50586 336.332 8.48242C336.332 7.47461 336.605 6.65625 337.152 6.02734C337.699 5.39844 338.414 5.08398 339.297 5.08398ZM340.979 7.86133C340.936 7.4043 340.836 7.03906 340.68 6.76562C340.391 6.25781 339.908 6.00391 339.232 6.00391C338.748 6.00391 338.342 6.17969 338.014 6.53125C337.686 6.87891 337.512 7.32227 337.492 7.86133H340.979ZM343.393 5.22461H344.395V6.30859C344.477 6.09766 344.678 5.8418 344.998 5.54102C345.318 5.23633 345.688 5.08398 346.105 5.08398C346.125 5.08398 346.158 5.08594 346.205 5.08984C346.252 5.09375 346.332 5.10156 346.445 5.11328V6.22656C346.383 6.21484 346.324 6.20703 346.27 6.20312C346.219 6.19922 346.162 6.19727 346.1 6.19727C345.568 6.19727 345.16 6.36914 344.875 6.71289C344.59 7.05273 344.447 7.44531 344.447 7.89062V11.5H343.393V5.22461ZM351.186 5.22461L352.393 10.1699L353.617 5.22461H354.801L356.031 10.1406L357.314 5.22461H358.369L356.547 11.5H355.451L354.174 6.64258L352.938 11.5H351.842L350.031 5.22461H351.186ZM361.984 5.08398C362.43 5.08398 362.861 5.18945 363.279 5.40039C363.697 5.60742 364.016 5.87695 364.234 6.20898C364.445 6.52539 364.586 6.89453 364.656 7.31641C364.719 7.60547 364.75 8.06641 364.75 8.69922H360.15C360.17 9.33594 360.32 9.84766 360.602 10.2344C360.883 10.6172 361.318 10.8086 361.908 10.8086C362.459 10.8086 362.898 10.627 363.227 10.2637C363.414 10.0527 363.547 9.80859 363.625 9.53125H364.662C364.635 9.76172 364.543 10.0195 364.387 10.3047C364.234 10.5859 364.062 10.8164 363.871 10.9961C363.551 11.3086 363.154 11.5195 362.682 11.6289C362.428 11.6914 362.141 11.7227 361.82 11.7227C361.039 11.7227 360.377 11.4395 359.834 10.873C359.291 10.3027 359.02 9.50586 359.02 8.48242C359.02 7.47461 359.293 6.65625 359.84 6.02734C360.387 5.39844 361.102 5.08398 361.984 5.08398ZM363.666 7.86133C363.623 7.4043 363.523 7.03906 363.367 6.76562C363.078 6.25781 362.596 6.00391 361.92 6.00391C361.436 6.00391 361.029 6.17969 360.701 6.53125C360.373 6.87891 360.199 7.32227 360.18 7.86133H363.666ZM365.969 2.86328H366.994V5.98633C367.225 5.68555 367.5 5.45703 367.82 5.30078C368.141 5.14062 368.488 5.06055 368.863 5.06055C369.645 5.06055 370.277 5.33008 370.762 5.86914C371.25 6.4043 371.494 7.19531 371.494 8.24219C371.494 9.23438 371.254 10.0586 370.773 10.7148C370.293 11.3711 369.627 11.6992 368.775 11.6992C368.299 11.6992 367.896 11.584 367.568 11.3535C367.373 11.2168 367.164 10.998 366.941 10.6973V11.5H365.969V2.86328ZM368.711 10.7676C369.281 10.7676 369.707 10.541 369.988 10.0879C370.273 9.63477 370.416 9.03711 370.416 8.29492C370.416 7.63477 370.273 7.08789 369.988 6.6543C369.707 6.2207 369.291 6.00391 368.74 6.00391C368.26 6.00391 367.838 6.18164 367.475 6.53711C367.115 6.89258 366.936 7.47852 366.936 8.29492C366.936 8.88477 367.01 9.36328 367.158 9.73047C367.436 10.4219 367.953 10.7676 368.711 10.7676Z" fill="#A0AEC0"/>
<path d="M138.402 7.25195C138.402 5.74414 138.807 4.58203 139.615 3.76562C140.318 3.05469 141.213 2.69922 142.299 2.69922C143.752 2.69922 144.814 3.17578 145.486 4.12891C145.857 4.66406 146.057 5.20117 146.084 5.74023H144.279C144.162 5.32617 144.012 5.01367 143.828 4.80273C143.5 4.42773 143.014 4.24023 142.369 4.24023C141.713 4.24023 141.195 4.50586 140.816 5.03711C140.438 5.56445 140.248 6.3125 140.248 7.28125C140.248 8.25 140.447 8.97656 140.846 9.46094C141.248 9.94141 141.758 10.1816 142.375 10.1816C143.008 10.1816 143.49 9.97461 143.822 9.56055C144.006 9.33789 144.158 9.00391 144.279 8.55859H146.066C145.91 9.5 145.51 10.2656 144.865 10.8555C144.225 11.4453 143.402 11.7402 142.398 11.7402C141.156 11.7402 140.18 11.3418 139.469 10.5449C138.758 9.74414 138.402 8.64648 138.402 7.25195ZM150.783 4.96094C150.814 4.96094 150.84 4.96289 150.859 4.9668C150.883 4.9668 150.932 4.96875 151.006 4.97266V6.68359C150.9 6.67188 150.807 6.66406 150.725 6.66016C150.643 6.65625 150.576 6.6543 150.525 6.6543C149.854 6.6543 149.402 6.87305 149.172 7.31055C149.043 7.55664 148.979 7.93555 148.979 8.44727V11.5H147.297V5.11328H148.891V6.22656C149.148 5.80078 149.373 5.50977 149.564 5.35352C149.877 5.0918 150.283 4.96094 150.783 4.96094ZM154.51 6.32031C154.123 6.32031 153.822 6.44141 153.607 6.68359C153.396 6.92578 153.264 7.25391 153.209 7.66797H155.805C155.777 7.22656 155.643 6.89258 155.4 6.66602C155.162 6.43555 154.865 6.32031 154.51 6.32031ZM154.51 4.94336C155.041 4.94336 155.52 5.04297 155.945 5.24219C156.371 5.44141 156.723 5.75586 157 6.18555C157.25 6.56445 157.412 7.00391 157.486 7.50391C157.529 7.79688 157.547 8.21875 157.539 8.76953H153.168C153.191 9.41016 153.393 9.85938 153.771 10.1172C154.002 10.2773 154.279 10.3574 154.604 10.3574C154.947 10.3574 155.227 10.2598 155.441 10.0645C155.559 9.95898 155.662 9.8125 155.752 9.625H157.457C157.414 10.0039 157.217 10.3887 156.865 10.7793C156.318 11.4004 155.553 11.7109 154.568 11.7109C153.756 11.7109 153.039 11.4492 152.418 10.9258C151.797 10.4023 151.486 9.55078 151.486 8.37109C151.486 7.26562 151.766 6.41797 152.324 5.82812C152.887 5.23828 153.615 4.94336 154.51 4.94336ZM162.191 8.39453C162.086 8.46094 161.979 8.51562 161.869 8.55859C161.764 8.59766 161.617 8.63477 161.43 8.66992L161.055 8.74023C160.703 8.80273 160.451 8.87891 160.299 8.96875C160.041 9.12109 159.912 9.35742 159.912 9.67773C159.912 9.96289 159.99 10.1699 160.146 10.2988C160.307 10.4238 160.5 10.4863 160.727 10.4863C161.086 10.4863 161.416 10.3809 161.717 10.1699C162.021 9.95898 162.18 9.57422 162.191 9.01562V8.39453ZM161.178 7.61523C161.486 7.57617 161.707 7.52734 161.84 7.46875C162.078 7.36719 162.197 7.20898 162.197 6.99414C162.197 6.73242 162.105 6.55273 161.922 6.45508C161.742 6.35352 161.477 6.30273 161.125 6.30273C160.73 6.30273 160.451 6.40039 160.287 6.5957C160.17 6.74023 160.092 6.93555 160.053 7.18164H158.441C158.477 6.62305 158.633 6.16406 158.91 5.80469C159.352 5.24219 160.109 4.96094 161.184 4.96094C161.883 4.96094 162.504 5.09961 163.047 5.37695C163.59 5.6543 163.861 6.17773 163.861 6.94727V9.87695C163.861 10.0801 163.865 10.3262 163.873 10.6152C163.885 10.834 163.918 10.9824 163.973 11.0605C164.027 11.1387 164.109 11.2031 164.219 11.2539V11.5H162.402C162.352 11.3711 162.316 11.25 162.297 11.1367C162.277 11.0234 162.262 10.8945 162.25 10.75C162.02 11 161.754 11.2129 161.453 11.3887C161.094 11.5957 160.688 11.6992 160.234 11.6992C159.656 11.6992 159.178 11.5352 158.799 11.207C158.424 10.875 158.236 10.4062 158.236 9.80078C158.236 9.01562 158.539 8.44727 159.145 8.0957C159.477 7.9043 159.965 7.76758 160.609 7.68555L161.178 7.61523ZM164.693 6.36133V5.17188H165.584V3.39062H167.236V5.17188H168.273V6.36133H167.236V9.73633C167.236 9.99805 167.27 10.1621 167.336 10.2285C167.402 10.291 167.605 10.3223 167.945 10.3223C167.996 10.3223 168.049 10.3223 168.104 10.3223C168.162 10.3184 168.219 10.3145 168.273 10.3105V11.5586L167.482 11.5879C166.693 11.6152 166.154 11.4785 165.865 11.1777C165.678 10.9863 165.584 10.6914 165.584 10.293V6.36133H164.693ZM171.062 4.35156H169.369V2.81055H171.062V4.35156ZM169.369 5.11328H171.062V11.5H169.369V5.11328ZM176.623 5.11328H178.416L176.113 11.5H174.35L172.059 5.11328H173.934L175.264 9.82422L176.623 5.11328ZM181.885 6.32031C181.498 6.32031 181.197 6.44141 180.982 6.68359C180.771 6.92578 180.639 7.25391 180.584 7.66797H183.18C183.152 7.22656 183.018 6.89258 182.775 6.66602C182.537 6.43555 182.24 6.32031 181.885 6.32031ZM181.885 4.94336C182.416 4.94336 182.895 5.04297 183.32 5.24219C183.746 5.44141 184.098 5.75586 184.375 6.18555C184.625 6.56445 184.787 7.00391 184.861 7.50391C184.904 7.79688 184.922 8.21875 184.914 8.76953H180.543C180.566 9.41016 180.768 9.85938 181.146 10.1172C181.377 10.2773 181.654 10.3574 181.979 10.3574C182.322 10.3574 182.602 10.2598 182.816 10.0645C182.934 9.95898 183.037 9.8125 183.127 9.625H184.832C184.789 10.0039 184.592 10.3887 184.24 10.7793C183.693 11.4004 182.928 11.7109 181.943 11.7109C181.131 11.7109 180.414 11.4492 179.793 10.9258C179.172 10.4023 178.861 9.55078 178.861 8.37109C178.861 7.26562 179.141 6.41797 179.699 5.82812C180.262 5.23828 180.99 4.94336 181.885 4.94336ZM195.795 2.86328V4.39258H193.211V11.5H191.395V4.39258H188.799V2.86328H195.795ZM198.227 4.35156H196.533V2.81055H198.227V4.35156ZM196.533 5.11328H198.227V11.5H196.533V5.11328ZM206.986 4.97266C207.268 4.97266 207.545 5.02734 207.818 5.13672C208.092 5.24609 208.34 5.4375 208.562 5.71094C208.742 5.93359 208.863 6.20703 208.926 6.53125C208.965 6.74609 208.984 7.06055 208.984 7.47461L208.973 11.5H207.262V7.43359C207.262 7.19141 207.223 6.99219 207.145 6.83594C206.996 6.53906 206.723 6.39062 206.324 6.39062C205.863 6.39062 205.545 6.58203 205.369 6.96484C205.279 7.16797 205.234 7.41211 205.234 7.69727V11.5H203.553V7.69727C203.553 7.31836 203.514 7.04297 203.436 6.87109C203.295 6.5625 203.02 6.4082 202.609 6.4082C202.133 6.4082 201.812 6.5625 201.648 6.87109C201.559 7.04688 201.514 7.30859 201.514 7.65625V11.5H199.82V5.125H201.443V6.05664C201.65 5.72461 201.846 5.48828 202.029 5.34766C202.354 5.09766 202.773 4.97266 203.289 4.97266C203.777 4.97266 204.172 5.08008 204.473 5.29492C204.715 5.49414 204.898 5.75 205.023 6.0625C205.242 5.6875 205.514 5.41211 205.838 5.23633C206.182 5.06055 206.564 4.97266 206.986 4.97266ZM226.65 8.83398C226.705 9.22852 226.812 9.52344 226.973 9.71875C227.266 10.0742 227.768 10.252 228.479 10.252C228.904 10.252 229.25 10.2051 229.516 10.1113C230.02 9.93164 230.271 9.59766 230.271 9.10938C230.271 8.82422 230.146 8.60352 229.896 8.44727C229.646 8.29492 229.254 8.16016 228.719 8.04297L227.805 7.83789C226.906 7.63477 226.285 7.41406 225.941 7.17578C225.359 6.77734 225.068 6.1543 225.068 5.30664C225.068 4.5332 225.35 3.89062 225.912 3.37891C226.475 2.86719 227.301 2.61133 228.391 2.61133C229.301 2.61133 230.076 2.85352 230.717 3.33789C231.361 3.81836 231.699 4.51758 231.73 5.43555H229.996C229.965 4.91602 229.738 4.54688 229.316 4.32812C229.035 4.18359 228.686 4.11133 228.268 4.11133C227.803 4.11133 227.432 4.20508 227.154 4.39258C226.877 4.58008 226.738 4.8418 226.738 5.17773C226.738 5.48633 226.875 5.7168 227.148 5.86914C227.324 5.9707 227.699 6.08984 228.273 6.22656L229.762 6.58398C230.414 6.74023 230.906 6.94922 231.238 7.21094C231.754 7.61719 232.012 8.20508 232.012 8.97461C232.012 9.76367 231.709 10.4199 231.104 10.9434C230.502 11.4629 229.65 11.7227 228.549 11.7227C227.424 11.7227 226.539 11.4668 225.895 10.9551C225.25 10.4395 224.928 9.73242 224.928 8.83398H226.65ZM234.93 4.35156H233.236V2.81055H234.93V4.35156ZM233.236 5.11328H234.93V11.5H233.236V5.11328ZM243.689 4.97266C243.971 4.97266 244.248 5.02734 244.521 5.13672C244.795 5.24609 245.043 5.4375 245.266 5.71094C245.445 5.93359 245.566 6.20703 245.629 6.53125C245.668 6.74609 245.688 7.06055 245.688 7.47461L245.676 11.5H243.965V7.43359C243.965 7.19141 243.926 6.99219 243.848 6.83594C243.699 6.53906 243.426 6.39062 243.027 6.39062C242.566 6.39062 242.248 6.58203 242.072 6.96484C241.982 7.16797 241.938 7.41211 241.938 7.69727V11.5H240.256V7.69727C240.256 7.31836 240.217 7.04297 240.139 6.87109C239.998 6.5625 239.723 6.4082 239.312 6.4082C238.836 6.4082 238.516 6.5625 238.352 6.87109C238.262 7.04688 238.217 7.30859 238.217 7.65625V11.5H236.523V5.125H238.146V6.05664C238.354 5.72461 238.549 5.48828 238.732 5.34766C239.057 5.09766 239.477 4.97266 239.992 4.97266C240.48 4.97266 240.875 5.08008 241.176 5.29492C241.418 5.49414 241.602 5.75 241.727 6.0625C241.945 5.6875 242.217 5.41211 242.541 5.23633C242.885 5.06055 243.268 4.97266 243.689 4.97266ZM254.365 4.97266C254.646 4.97266 254.924 5.02734 255.197 5.13672C255.471 5.24609 255.719 5.4375 255.941 5.71094C256.121 5.93359 256.242 6.20703 256.305 6.53125C256.344 6.74609 256.363 7.06055 256.363 7.47461L256.352 11.5H254.641V7.43359C254.641 7.19141 254.602 6.99219 254.523 6.83594C254.375 6.53906 254.102 6.39062 253.703 6.39062C253.242 6.39062 252.924 6.58203 252.748 6.96484C252.658 7.16797 252.613 7.41211 252.613 7.69727V11.5H250.932V7.69727C250.932 7.31836 250.893 7.04297 250.814 6.87109C250.674 6.5625 250.398 6.4082 249.988 6.4082C249.512 6.4082 249.191 6.5625 249.027 6.87109C248.938 7.04688 248.893 7.30859 248.893 7.65625V11.5H247.199V5.125H248.822V6.05664C249.029 5.72461 249.225 5.48828 249.408 5.34766C249.732 5.09766 250.152 4.97266 250.668 4.97266C251.156 4.97266 251.551 5.08008 251.852 5.29492C252.094 5.49414 252.277 5.75 252.402 6.0625C252.621 5.6875 252.893 5.41211 253.217 5.23633C253.561 5.06055 253.943 4.97266 254.365 4.97266ZM265.041 4.97266C265.322 4.97266 265.6 5.02734 265.873 5.13672C266.146 5.24609 266.395 5.4375 266.617 5.71094C266.797 5.93359 266.918 6.20703 266.98 6.53125C267.02 6.74609 267.039 7.06055 267.039 7.47461L267.027 11.5H265.316V7.43359C265.316 7.19141 265.277 6.99219 265.199 6.83594C265.051 6.53906 264.777 6.39062 264.379 6.39062C263.918 6.39062 263.6 6.58203 263.424 6.96484C263.334 7.16797 263.289 7.41211 263.289 7.69727V11.5H261.607V7.69727C261.607 7.31836 261.568 7.04297 261.49 6.87109C261.35 6.5625 261.074 6.4082 260.664 6.4082C260.188 6.4082 259.867 6.5625 259.703 6.87109C259.613 7.04688 259.568 7.30859 259.568 7.65625V11.5H257.875V5.125H259.498V6.05664C259.705 5.72461 259.9 5.48828 260.084 5.34766C260.408 5.09766 260.828 4.97266 261.344 4.97266C261.832 4.97266 262.227 5.08008 262.527 5.29492C262.77 5.49414 262.953 5.75 263.078 6.0625C263.297 5.6875 263.568 5.41211 263.893 5.23633C264.236 5.06055 264.619 4.97266 265.041 4.97266ZM272.98 8.30664C272.98 7.81445 272.867 7.37891 272.641 7C272.418 6.62109 272.055 6.43164 271.551 6.43164C270.945 6.43164 270.529 6.71875 270.303 7.29297C270.186 7.59766 270.127 7.98438 270.127 8.45312C270.127 9.19531 270.324 9.7168 270.719 10.0176C270.953 10.1934 271.23 10.2812 271.551 10.2812C272.016 10.2812 272.369 10.1016 272.611 9.74219C272.857 9.38281 272.98 8.9043 272.98 8.30664ZM272.031 4.97266C272.777 4.97266 273.408 5.24805 273.924 5.79883C274.443 6.34961 274.703 7.1582 274.703 8.22461C274.703 9.34961 274.449 10.207 273.941 10.7969C273.438 11.3867 272.787 11.6816 271.99 11.6816C271.482 11.6816 271.061 11.5547 270.725 11.3008C270.541 11.1602 270.361 10.9551 270.186 10.6855V14.0137H268.533V5.11328H270.133V6.05664C270.312 5.7793 270.504 5.56055 270.707 5.40039C271.078 5.11523 271.52 4.97266 272.031 4.97266ZM277.621 11.5H275.951V2.86328H277.621V11.5ZM281.775 6.32031C281.389 6.32031 281.088 6.44141 280.873 6.68359C280.662 6.92578 280.529 7.25391 280.475 7.66797H283.07C283.043 7.22656 282.908 6.89258 282.666 6.66602C282.428 6.43555 282.131 6.32031 281.775 6.32031ZM281.775 4.94336C282.307 4.94336 282.785 5.04297 283.211 5.24219C283.637 5.44141 283.988 5.75586 284.266 6.18555C284.516 6.56445 284.678 7.00391 284.752 7.50391C284.795 7.79688 284.812 8.21875 284.805 8.76953H280.434C280.457 9.41016 280.658 9.85938 281.037 10.1172C281.268 10.2773 281.545 10.3574 281.869 10.3574C282.213 10.3574 282.492 10.2598 282.707 10.0645C282.824 9.95898 282.928 9.8125 283.018 9.625H284.723C284.68 10.0039 284.482 10.3887 284.131 10.7793C283.584 11.4004 282.818 11.7109 281.834 11.7109C281.021 11.7109 280.305 11.4492 279.684 10.9258C279.062 10.4023 278.752 9.55078 278.752 8.37109C278.752 7.26562 279.031 6.41797 279.59 5.82812C280.152 5.23828 280.881 4.94336 281.775 4.94336Z" fill="#38B2AC"/>
</svg>
