<svg width="70" height="25" viewBox="0 0 70 25" fill="none" xmlns="http://www.w3.org/2000/svg">
<g clip-path="url(#clip0_67_362)">
<g clip-path="url(#clip1_67_362)">
<path d="M10.838 9.58686C10.8132 9.53872 10.7774 9.49711 10.7336 9.46541C10.6897 9.43371 10.6389 9.41282 10.5855 9.40444C10.532 9.39607 10.4773 9.40044 10.4258 9.41721C10.3743 9.43397 10.3275 9.46266 10.2893 9.50092L8.96926 10.8218C8.90446 10.8856 8.81714 10.9214 8.72616 10.9214C8.63518 10.9214 8.54786 10.8856 8.48306 10.8218L7.91244 10.2503C7.88051 10.2184 7.85518 10.1805 7.8379 10.1388C7.82062 10.0971 7.81173 10.0524 7.81173 10.0072C7.81173 9.96206 7.82062 9.91735 7.8379 9.87564C7.85518 9.83393 7.88051 9.79603 7.91244 9.76411L9.22685 8.44948C9.26626 8.41008 9.29549 8.3617 9.31204 8.30849C9.32859 8.25528 9.33196 8.19885 9.32185 8.14405C9.31175 8.08926 9.28847 8.03774 9.25403 7.99394C9.21959 7.95013 9.17502 7.91536 9.12416 7.89261C8.13136 7.44874 6.89215 7.68034 6.11076 8.45593C5.44689 9.11507 5.24902 10.145 5.56828 11.2818C5.58549 11.3424 5.58559 11.4066 5.56857 11.4673C5.55154 11.5279 5.51805 11.5827 5.47182 11.6255L1.8951 14.8922C1.75576 15.0173 1.64337 15.1695 1.56478 15.3395C1.48619 15.5094 1.44306 15.6936 1.438 15.8808C1.43295 16.068 1.46608 16.2543 1.53538 16.4283C1.60468 16.6022 1.7087 16.7602 1.84108 16.8927C1.97347 17.0251 2.13144 17.1292 2.30538 17.1986C2.47932 17.268 2.66556 17.3012 2.85276 17.2962C3.03995 17.2912 3.22417 17.2482 3.39418 17.1697C3.56418 17.0912 3.71642 16.9788 3.84158 16.8396L7.1433 13.2549C7.1855 13.2092 7.23935 13.176 7.29905 13.1587C7.35875 13.1414 7.42204 13.1407 7.48211 13.1567C7.80574 13.2454 8.13956 13.2914 8.47511 13.2936C9.19269 13.2936 9.8224 13.0613 10.2766 12.6138C11.1177 11.7851 11.246 10.3796 10.838 9.58686ZM2.88746 16.6043C2.74597 16.6197 2.60316 16.5909 2.47876 16.5217C2.35436 16.4526 2.2545 16.3465 2.19295 16.2181C2.13141 16.0898 2.11122 15.9455 2.13516 15.8052C2.15911 15.6649 2.22601 15.5355 2.32664 15.4348C2.42727 15.3341 2.55666 15.2672 2.69696 15.2432C2.83726 15.2192 2.98155 15.2393 3.10992 15.3008C3.23828 15.3623 3.34439 15.4622 3.41361 15.5866C3.48282 15.7109 3.51172 15.8537 3.49633 15.9952C3.47939 16.1509 3.4098 16.2962 3.29908 16.4069C3.18836 16.5177 3.04315 16.5873 2.88746 16.6043Z" fill="#2D3748"/>
</g>
<path d="M20.6016 11.09C20.6016 10.7156 20.5023 10.4487 20.3037 10.2892C20.1084 10.1297 19.8333 10.0499 19.4785 10.0499H18.0772V12.1691H19.4785C19.8333 12.1691 20.1084 12.0828 20.3037 11.9103C20.5023 11.7378 20.6016 11.4643 20.6016 11.09ZM22.0908 11.0802C22.0908 11.9298 21.876 12.5304 21.4463 12.882C21.0166 13.2335 20.403 13.4093 19.6055 13.4093H18.0772V15.9972H16.583V8.79993H19.7178C20.4404 8.79993 21.0166 8.98547 21.4463 9.35657C21.876 9.72766 22.0908 10.3022 22.0908 11.0802ZM24.7227 10.0499V11.9835H26.4268C26.7653 11.9835 27.0192 11.9445 27.1885 11.8663C27.488 11.7296 27.6377 11.4594 27.6377 11.0558C27.6377 10.6196 27.4928 10.3266 27.2031 10.1769C27.0404 10.0922 26.7962 10.0499 26.4707 10.0499H24.7227ZM26.7832 8.79993C27.2878 8.80969 27.6751 8.87154 27.9453 8.98547C28.2188 9.09941 28.4499 9.26705 28.6387 9.4884C28.7949 9.6707 28.9186 9.87252 29.0098 10.0939C29.1009 10.3152 29.1465 10.5675 29.1465 10.8507C29.1465 11.1925 29.0602 11.5294 28.8877 11.8615C28.7152 12.1902 28.4303 12.423 28.0332 12.5597C28.3652 12.6932 28.5996 12.8836 28.7363 13.131C28.8763 13.3751 28.9463 13.7495 28.9463 14.254V14.7374C28.9463 15.0662 28.9593 15.2892 28.9854 15.4064C29.0244 15.5919 29.1156 15.7286 29.2588 15.8165V15.9972H27.6035C27.5579 15.8377 27.5254 15.7091 27.5059 15.6115C27.4668 15.4096 27.4456 15.2029 27.4424 14.9913L27.4326 14.3224C27.4261 13.8634 27.3415 13.5574 27.1787 13.4044C27.0192 13.2514 26.7181 13.1749 26.2754 13.1749H24.7227V15.9972H23.2529V8.79993H26.7832ZM33.6289 14.923C34.2246 14.923 34.6966 14.7032 35.0449 14.2638C35.3965 13.8243 35.5723 13.1993 35.5723 12.3888C35.5723 11.5815 35.3965 10.9581 35.0449 10.5187C34.6966 10.076 34.2246 9.85461 33.6289 9.85461C33.0332 9.85461 32.5579 10.0743 32.2031 10.5138C31.8483 10.9532 31.6709 11.5782 31.6709 12.3888C31.6709 13.1993 31.8483 13.8243 32.2031 14.2638C32.5579 14.7032 33.0332 14.923 33.6289 14.923ZM37.0762 12.3888C37.0762 13.6811 36.7132 14.6707 35.9873 15.3575C35.4437 15.9174 34.6576 16.1974 33.6289 16.1974C32.6003 16.1974 31.8141 15.9174 31.2705 15.3575C30.5413 14.6707 30.1768 13.6811 30.1768 12.3888C30.1768 11.0704 30.5413 10.0809 31.2705 9.42004C31.8141 8.86015 32.6003 8.5802 33.6289 8.5802C34.6576 8.5802 35.4437 8.86015 35.9873 9.42004C36.7132 10.0809 37.0762 11.0704 37.0762 12.3888ZM39.1074 13.2677V13.4337C39.1204 13.9904 39.1807 14.3826 39.2881 14.6105C39.3988 14.8351 39.6331 14.9474 39.9912 14.9474C40.346 14.9474 40.5804 14.8237 40.6943 14.5763C40.7627 14.4298 40.7969 14.1824 40.7969 13.8341V8.79993H42.3008V13.8097C42.3008 14.4217 42.195 14.9067 41.9834 15.2648C41.6253 15.8702 40.9792 16.173 40.0449 16.173C39.1107 16.173 38.484 15.9288 38.165 15.4406C37.846 14.949 37.6865 14.2801 37.6865 13.4337V13.2677H39.1074ZM49.1172 10.0743H45.3086V11.6027H48.8047V12.8527H45.3086V14.7032H49.293V15.9972H43.8389V8.79993H49.1172V10.0743ZM50.1523 12.4572C50.1523 11.2006 50.4893 10.2322 51.1631 9.55188C51.749 8.95943 52.4945 8.66321 53.3994 8.66321C54.6104 8.66321 55.4958 9.06034 56.0557 9.85461C56.3649 10.3006 56.5309 10.7482 56.5537 11.1974H55.0498C54.9521 10.8523 54.8268 10.5919 54.6738 10.4161C54.4004 10.1036 53.9951 9.94739 53.458 9.94739C52.9111 9.94739 52.4798 10.1687 52.1641 10.6115C51.8483 11.0509 51.6904 11.6743 51.6904 12.4816C51.6904 13.2889 51.8564 13.8943 52.1885 14.298C52.5238 14.6984 52.9486 14.8986 53.4629 14.8986C53.9902 14.8986 54.3923 14.726 54.6689 14.381C54.8219 14.1954 54.9489 13.9171 55.0498 13.546H56.5391C56.4089 14.3305 56.0752 14.9685 55.5381 15.4601C55.0042 15.9516 54.319 16.1974 53.4824 16.1974C52.4473 16.1974 51.6335 15.8654 51.041 15.2013C50.4486 14.534 50.1523 13.6193 50.1523 12.4572ZM62.9209 8.79993V10.0743H60.7676V15.9972H59.2539V10.0743H57.0908V8.79993H62.9209ZM64.8936 13.7755C64.9391 14.1043 65.0286 14.3501 65.1621 14.5128C65.4062 14.809 65.8245 14.9572 66.417 14.9572C66.7718 14.9572 67.0599 14.9181 67.2812 14.84C67.7012 14.6902 67.9111 14.4119 67.9111 14.005C67.9111 13.7674 67.807 13.5835 67.5986 13.4532C67.3903 13.3263 67.0632 13.214 66.6172 13.1163L65.8555 12.9454C65.1068 12.7762 64.5892 12.5922 64.3027 12.3937C63.8177 12.0616 63.5752 11.5424 63.5752 10.8361C63.5752 10.1915 63.8096 9.65605 64.2783 9.22961C64.7471 8.80318 65.4355 8.58997 66.3437 8.58997C67.1022 8.58997 67.7484 8.79179 68.2822 9.19544C68.8193 9.59583 69.1009 10.1785 69.127 10.9435H67.6816C67.6556 10.5105 67.4668 10.2029 67.1152 10.0206C66.8809 9.90019 66.5895 9.83997 66.2412 9.83997C65.8538 9.83997 65.5446 9.91809 65.3135 10.0743C65.0824 10.2306 64.9668 10.4487 64.9668 10.7286C64.9668 10.9858 65.0807 11.1779 65.3086 11.3048C65.4551 11.3894 65.7676 11.4887 66.2461 11.6027L67.4863 11.9005C68.0299 12.0307 68.4401 12.2049 68.7168 12.423C69.1465 12.7615 69.3613 13.2514 69.3613 13.8927C69.3613 14.5503 69.109 15.0971 68.6045 15.5333C68.1032 15.9663 67.3936 16.1827 66.4756 16.1827C65.5381 16.1827 64.8008 15.9695 64.2637 15.5431C63.7266 15.1134 63.458 14.5242 63.458 13.7755H64.8936Z" fill="#2D3748"/>
</g>
<defs>
<clipPath id="clip0_67_362">
<rect width="69" height="15" fill="white" transform="translate(0.75 4.99719)"/>
</clipPath>
<clipPath id="clip1_67_362">
<rect width="11" height="11" fill="white" transform="translate(0.75 6.99719)"/>
</clipPath>
</defs>
</svg>
