<svg width="14" height="7" viewBox="0 0 14 7" fill="none" xmlns="http://www.w3.org/2000/svg">
<path d="M12.1562 6.56164H1.84367C1.70869 6.5634 1.57502 6.53504 1.45237 6.47864C1.32973 6.42223 1.2212 6.3392 1.13469 6.23557C0.944259 6.00793 0.867502 5.69709 0.924337 5.38274C1.1716 4.01106 1.94328 2.85881 3.15617 2.04993C4.23371 1.33186 5.59865 0.936646 6.99992 0.936646C8.40119 0.936646 9.76613 1.33215 10.8437 2.04993C12.0566 2.85852 12.8282 4.01077 13.0755 5.38245C13.1323 5.6968 13.0556 6.00764 12.8652 6.23528C12.7787 6.33896 12.6702 6.42205 12.5475 6.4785C12.4249 6.53496 12.2912 6.56336 12.1562 6.56164V6.56164Z" fill="#4FD1C5"/>
</svg>
