<svg width="41" height="41" viewBox="0 0 41 41" fill="none" xmlns="http://www.w3.org/2000/svg">
<g filter="url(#filter0_d_2_93)">
<rect x="5.49976" y="2" width="30" height="30" rx="12" fill="white"/>
</g>
<defs>
<filter id="filter0_d_2_93" x="-0.000244617" y="-2.38419e-07" width="41" height="41" filterUnits="userSpaceOnUse" color-interpolation-filters="sRGB">
<feFlood flood-opacity="0" result="BackgroundImageFix"/>
<feColorMatrix in="SourceAlpha" type="matrix" values="0 0 0 0 0 0 0 0 0 0 0 0 0 0 0 0 0 0 127 0" result="hardAlpha"/>
<feOffset dy="3.5"/>
<feGaussianBlur stdDeviation="2.75"/>
<feColorMatrix type="matrix" values="0 0 0 0 0 0 0 0 0 0 0 0 0 0 0 0 0 0 0.02 0"/>
<feBlend mode="normal" in2="BackgroundImageFix" result="effect1_dropShadow_2_93"/>
<feBlend mode="normal" in="SourceGraphic" in2="effect1_dropShadow_2_93" result="shape"/>
</filter>
</defs>
    <svg x='9' y='11' width="24" height="12" viewBox="0 0 13 2" fill="none" xmlns="http://www.w3.org/2000/svg">
        <path d="M2.04687 1.46875H1.10937C0.922894 1.46875 0.744052 1.46381 0.61219 1.45502C0.480329 1.44623 0.40625 1.43431 0.40625 1.42187V1.14062C0.40625 1.12819 0.480329 1.11627 0.61219 1.10748C0.744052 1.09869 0.922894 1.09375 1.10937 1.09375H2.04687C2.23335 1.09375 2.4122 1.09869 2.54406 1.10748C2.67592 1.11627 2.75 1.12819 2.75 1.14062V1.42187C2.75 1.43431 2.67592 1.44623 2.54406 1.45502C2.4122 1.46381 2.23335 1.46875 2.04687 1.46875Z" fill="#4FD1C5"/>
        <path d="M8.60937 1.46869H7.67187C7.48539 1.46869 7.30655 1.46375 7.17469 1.45496C7.04283 1.44617 6.96875 1.43425 6.96875 1.42181V0.953064C6.96875 0.940632 7.04283 0.928709 7.17469 0.919918C7.30655 0.911128 7.48539 0.906189 7.67187 0.906189H8.60937C8.79585 0.906189 8.9747 0.911128 9.10656 0.919918C9.23842 0.928709 9.3125 0.940632 9.3125 0.953064V1.42181C9.3125 1.43425 9.23842 1.44617 9.10656 1.45496C8.9747 1.46375 8.79585 1.46869 8.60937 1.46869Z" fill="#4FD1C5"/>
        <path d="M11.8906 1.46872H10.9531C10.7666 1.46872 10.5878 1.46378 10.4559 1.45499C10.3241 1.4462 10.25 1.43428 10.25 1.42184V0.734344C10.25 0.721912 10.3241 0.70999 10.4559 0.701199C10.5878 0.692408 10.7666 0.687469 10.9531 0.687469H11.8906C12.0771 0.687469 12.2559 0.692408 12.3878 0.701199C12.5197 0.70999 12.5937 0.721912 12.5937 0.734344V1.42184C12.5937 1.43428 12.5197 1.4462 12.3878 1.45499C12.2559 1.46378 12.0771 1.46872 11.8906 1.46872Z" fill="#4FD1C5"/>
        <path d="M5.32812 1.46869H4.39062C4.20414 1.46869 4.0253 1.46375 3.89344 1.45496C3.76158 1.44617 3.6875 1.43425 3.6875 1.42181V0.578064C3.6875 0.565632 3.76158 0.553709 3.89344 0.544918C4.0253 0.536128 4.20414 0.531189 4.39062 0.531189H5.32812C5.5146 0.531189 5.69345 0.536128 5.82531 0.544918C5.95717 0.553709 6.03125 0.565632 6.03125 0.578064V1.42181C6.03125 1.43425 5.95717 1.44617 5.82531 1.45496C5.69345 1.46375 5.5146 1.46869 5.32812 1.46869Z" fill="#4FD1C5"/>
    </svg>
</svg>
