<svg width="70" height="25" viewBox="0 0 70 25" fill="none" xmlns="http://www.w3.org/2000/svg">
<g clip-path="url(#clip0_67_313)">
<g clip-path="url(#clip1_67_313)">
<g clip-path="url(#clip2_67_313)">
<path d="M1.78125 10.6487V14.8794L5.90625 17.3089V13.098L1.78125 10.6487Z" fill="#2D3748"/>
<path d="M6.59375 17.3089L10.7187 14.8794V10.6487L6.59375 13.098V17.3089Z" fill="#2D3748"/>
<path d="M10.375 10.0905L6.25 7.6842L2.125 10.0905L6.25 12.4967L10.375 10.0905Z" fill="#2D3748"/>
</g>
<path d="M19.8252 14.923C20.4209 14.923 20.8929 14.7032 21.2412 14.2638C21.5928 13.8243 21.7686 13.1993 21.7686 12.3888C21.7686 11.5815 21.5928 10.9581 21.2412 10.5187C20.8929 10.076 20.4209 9.85461 19.8252 9.85461C19.2295 9.85461 18.7542 10.0743 18.3994 10.5138C18.0446 10.9532 17.8672 11.5782 17.8672 12.3888C17.8672 13.1993 18.0446 13.8243 18.3994 14.2638C18.7542 14.7032 19.2295 14.923 19.8252 14.923ZM23.2725 12.3888C23.2725 13.6811 22.9095 14.6707 22.1836 15.3575C21.64 15.9174 20.8538 16.1974 19.8252 16.1974C18.7966 16.1974 18.0104 15.9174 17.4668 15.3575C16.7376 14.6707 16.373 13.6811 16.373 12.3888C16.373 11.0704 16.7376 10.0809 17.4668 9.42004C18.0104 8.86015 18.7966 8.5802 19.8252 8.5802C20.8538 8.5802 21.64 8.86015 22.1836 9.42004C22.9095 10.0809 23.2725 11.0704 23.2725 12.3888ZM28.6387 8.79993H30.2012L27.7451 15.9972H26.3242L23.8926 8.79993H25.499L27.0615 14.2638L28.6387 8.79993ZM36.417 10.0743H32.6084V11.6027H36.1045V12.8527H32.6084V14.7032H36.5928V15.9972H31.1387V8.79993H36.417V10.0743ZM39.2686 10.0499V11.9835H40.9727C41.3112 11.9835 41.5651 11.9445 41.7344 11.8663C42.0339 11.7296 42.1836 11.4594 42.1836 11.0558C42.1836 10.6196 42.0387 10.3266 41.749 10.1769C41.5863 10.0922 41.3421 10.0499 41.0166 10.0499H39.2686ZM41.3291 8.79993C41.8337 8.80969 42.221 8.87154 42.4912 8.98547C42.7646 9.09941 42.9958 9.26705 43.1846 9.4884C43.3408 9.6707 43.4645 9.87252 43.5557 10.0939C43.6468 10.3152 43.6924 10.5675 43.6924 10.8507C43.6924 11.1925 43.6061 11.5294 43.4336 11.8615C43.2611 12.1902 42.9762 12.423 42.5791 12.5597C42.9111 12.6932 43.1455 12.8836 43.2822 13.131C43.4222 13.3751 43.4922 13.7495 43.4922 14.254V14.7374C43.4922 15.0662 43.5052 15.2892 43.5312 15.4064C43.5703 15.5919 43.6615 15.7286 43.8047 15.8165V15.9972H42.1494C42.1038 15.8377 42.0713 15.7091 42.0518 15.6115C42.0127 15.4096 41.9915 15.2029 41.9883 14.9913L41.9785 14.3224C41.972 13.8634 41.8874 13.5574 41.7246 13.4044C41.5651 13.2514 41.264 13.1749 40.8213 13.1749H39.2686V15.9972H37.7988V8.79993H41.3291ZM49.0293 8.79993H50.5918L48.1357 15.9972H46.7148L44.2832 8.79993H45.8896L47.4521 14.2638L49.0293 8.79993ZM52.8623 15.9972H51.3682V8.79993H52.8623V15.9972ZM59.5908 10.0743H55.7822V11.6027H59.2783V12.8527H55.7822V14.7032H59.7666V15.9972H54.3125V8.79993H59.5908V10.0743ZM61.9199 8.79993L62.8721 12.921L63.0771 14.0685L63.2871 12.9454L64.0977 8.79993H65.6846L66.5391 12.921L66.7588 14.0685L66.9785 12.965L67.9404 8.79993H69.4687L67.4424 15.9972H66.0068L65.1377 11.7882L64.8838 10.3966L64.6299 11.7882L63.7607 15.9972H62.3643L60.3232 8.79993H61.9199Z" fill="#2D3748"/>
</g>
<g clip-path="url(#clip3_67_313)">
<rect x="35.2471" y="24.4972" width="0.00567708" height="0.00567708" fill="#C4C4C4"/>
</g>
</g>
<defs>
<clipPath id="clip0_67_313">
<rect width="69" height="24.0057" fill="white" transform="translate(0.75 0.497192)"/>
</clipPath>
<clipPath id="clip1_67_313">
<rect width="69" height="15" fill="white" transform="translate(0.75 4.99719)"/>
</clipPath>
<clipPath id="clip2_67_313">
<rect width="11" height="11" fill="white" transform="translate(0.75 6.99719)"/>
</clipPath>
<clipPath id="clip3_67_313">
<rect width="24.0057" height="0.00567413" fill="white" transform="translate(23.2471 24.4972)"/>
</clipPath>
</defs>
</svg>
