<svg width="12" height="13" viewBox="0 0 12 13" fill="none" xmlns="http://www.w3.org/2000/svg">
<path d="M10.3144 8.4992C10.2755 8.45233 10.2373 8.40545 10.1998 8.36022C9.68421 7.73655 9.37225 7.36014 9.37225 5.5946C9.37225 4.68054 9.15358 3.93054 8.72257 3.36804C8.40475 2.95249 7.97514 2.63726 7.40889 2.40429C7.40161 2.40023 7.3951 2.39492 7.38968 2.38858C7.186 1.70655 6.62866 1.24976 6.00007 1.24976C5.37147 1.24976 4.81436 1.70655 4.61069 2.38788C4.60526 2.39398 4.59884 2.39913 4.59171 2.40311C3.2703 2.9471 2.62812 3.99077 2.62812 5.59389C2.62812 7.36014 2.31663 7.73655 1.80054 8.35952C1.76304 8.40475 1.72484 8.45069 1.68593 8.4985C1.58543 8.6197 1.52175 8.76716 1.50244 8.92342C1.48313 9.07967 1.50898 9.2382 1.57694 9.38022C1.72155 9.68491 2.02976 9.87405 2.38155 9.87405H9.62116C9.97131 9.87405 10.2774 9.68514 10.4225 9.38186C10.4907 9.2398 10.5168 9.08115 10.4977 8.92471C10.4785 8.76827 10.4149 8.6206 10.3144 8.4992Z" fill="currentColor"/>
<path d="M5.99996 11.75C6.33864 11.7497 6.67093 11.6578 6.96159 11.4839C7.25225 11.3101 7.49044 11.0608 7.65089 10.7626C7.65845 10.7483 7.66219 10.7323 7.66173 10.7161C7.66128 10.7 7.65665 10.6842 7.6483 10.6703C7.63995 10.6565 7.62816 10.645 7.61408 10.6371C7.59999 10.6292 7.58409 10.625 7.56792 10.625H4.43246C4.41627 10.6249 4.40034 10.6291 4.38622 10.637C4.37211 10.6449 4.36029 10.6564 4.35191 10.6702C4.34353 10.6841 4.33888 10.6999 4.33842 10.7161C4.33795 10.7322 4.34169 10.7483 4.34926 10.7626C4.50969 11.0608 4.74784 11.31 5.03846 11.4839C5.32907 11.6577 5.66132 11.7497 5.99996 11.75Z" fill="currentColor"/>
</svg>
