<svg width="61" height="25" viewBox="0 0 61 25" fill="none" xmlns="http://www.w3.org/2000/svg">
<g clip-path="url(#clip0_92_38)">
<g clip-path="url(#clip1_92_38)">
<g clip-path="url(#clip2_92_38)">
<path d="M8.64658 8.0846C8.2285 7.63322 7.64455 7.38464 7.00002 7.38464C6.35205 7.38464 5.76617 7.63171 5.35002 8.08031C4.92936 8.53384 4.7244 9.15023 4.77252 9.81581C4.86791 11.1289 5.86715 12.1971 7.00002 12.1971C8.13289 12.1971 9.13041 11.1292 9.22731 9.81624C9.27607 9.15667 9.06982 8.54158 8.64658 8.0846Z" fill="currentColor"/>
<path d="M10.7814 17.0092H3.21887C3.11989 17.0104 3.02186 16.9896 2.93192 16.9483C2.84198 16.9069 2.76239 16.846 2.69895 16.77C2.5593 16.6031 2.50301 16.3752 2.54469 16.1446C2.72602 15.1387 3.29192 14.2937 4.18137 13.7006C4.97157 13.174 5.97252 12.8842 7.00012 12.8842C8.02772 12.8842 9.02867 13.1742 9.81887 13.7006C10.7083 14.2935 11.2742 15.1385 11.4555 16.1444C11.4972 16.3749 11.4409 16.6029 11.3013 16.7698C11.2379 16.8458 11.1583 16.9068 11.0684 16.9482C10.9784 16.9896 10.8804 17.0104 10.7814 17.0092Z" fill="currentColor"/>
</g>
<path d="M21.3848 10.7901C21.3848 10.4158 21.2855 10.1488 21.0869 9.98932C20.8916 9.82981 20.6165 9.75006 20.2617 9.75006H18.8604V11.8692H20.2617C20.6165 11.8692 20.8916 11.7829 21.0869 11.6104C21.2855 11.4379 21.3848 11.1644 21.3848 10.7901ZM22.874 10.7803C22.874 11.6299 22.6592 12.2305 22.2295 12.5821C21.7998 12.9337 21.1862 13.1094 20.3887 13.1094H18.8604V15.6973H17.3662V8.50006H20.501C21.2236 8.50006 21.7998 8.68561 22.2295 9.0567C22.6592 9.4278 22.874 10.0023 22.874 10.7803ZM25.5059 9.75006V11.6837H27.21C27.5485 11.6837 27.8024 11.6446 27.9717 11.5665C28.2712 11.4297 28.4209 11.1596 28.4209 10.7559C28.4209 10.3197 28.276 10.0268 27.9863 9.87701C27.8236 9.79238 27.5794 9.75006 27.2539 9.75006H25.5059ZM27.5664 8.50006C28.071 8.50983 28.4583 8.57168 28.7285 8.68561C29.002 8.79954 29.2331 8.96718 29.4219 9.18854C29.5781 9.37083 29.7018 9.57265 29.793 9.79401C29.8841 10.0154 29.9297 10.2676 29.9297 10.5508C29.9297 10.8926 29.8434 11.2296 29.6709 11.5616C29.4984 11.8904 29.2135 12.1231 28.8164 12.2598C29.1484 12.3933 29.3828 12.5837 29.5195 12.8311C29.6595 13.0753 29.7295 13.4496 29.7295 13.9542V14.4376C29.7295 14.7663 29.7425 14.9893 29.7686 15.1065C29.8076 15.2921 29.8988 15.4288 30.042 15.5167V15.6973H28.3867C28.3411 15.5378 28.3086 15.4092 28.2891 15.3116C28.25 15.1098 28.2288 14.9031 28.2256 14.6915L28.2158 14.0225C28.2093 13.5635 28.1247 13.2575 27.9619 13.1046C27.8024 12.9516 27.5013 12.8751 27.0586 12.8751H25.5059V15.6973H24.0361V8.50006H27.5664ZM34.4121 14.6231C35.0078 14.6231 35.4798 14.4034 35.8281 13.9639C36.1797 13.5245 36.3555 12.8995 36.3555 12.0889C36.3555 11.2816 36.1797 10.6583 35.8281 10.2188C35.4798 9.7761 35.0078 9.55475 34.4121 9.55475C33.8164 9.55475 33.3411 9.77448 32.9863 10.2139C32.6315 10.6534 32.4541 11.2784 32.4541 12.0889C32.4541 12.8995 32.6315 13.5245 32.9863 13.9639C33.3411 14.4034 33.8164 14.6231 34.4121 14.6231ZM37.8594 12.0889C37.8594 13.3812 37.4964 14.3708 36.7705 15.0577C36.2269 15.6176 35.4408 15.8975 34.4121 15.8975C33.3835 15.8975 32.5973 15.6176 32.0537 15.0577C31.3245 14.3708 30.96 13.3812 30.96 12.0889C30.96 10.7706 31.3245 9.78099 32.0537 9.12018C32.5973 8.56028 33.3835 8.28033 34.4121 8.28033C35.4408 8.28033 36.2269 8.56028 36.7705 9.12018C37.4964 9.78099 37.8594 10.7706 37.8594 12.0889ZM39.0117 8.50983H44.1143V9.77448H40.5059V11.4297H43.665V12.6797H40.5059V15.6973H39.0117V8.50983ZM46.502 15.6973H45.0078V8.50006H46.502V15.6973ZM47.9082 8.50006H49.4121V14.4034H52.9766V15.6973H47.9082V8.50006ZM59.3438 9.77448H55.5352V11.3028H59.0312V12.5528H55.5352V14.4034H59.5195V15.6973H54.0654V8.50006H59.3438V9.77448Z" fill="currentColor"/>
</g>
<g clip-path="url(#clip3_92_38)">
<rect x="30.7476" y="24.1973" width="0.00478125" height="0.00478125" fill="#C4C4C4"/>
</g>
</g>
<defs>
<clipPath id="clip0_92_38">
<rect width="58.5" height="24.0048" fill="white" transform="translate(1.5 0.197327)"/>
</clipPath>
<clipPath id="clip1_92_38">
<rect width="58.5" height="15" fill="white" transform="translate(1.5 4.69733)"/>
</clipPath>
<clipPath id="clip2_92_38">
<rect width="11" height="11" fill="white" transform="translate(1.5 6.69733)"/>
</clipPath>
<clipPath id="clip3_92_38">
<rect width="24.0048" height="0.00476141" fill="white" transform="translate(18.7476 24.1973)"/>
</clipPath>
</defs>
</svg>
