<svg width="42" height="41" viewBox="0 0 42 41" fill="none" xmlns="http://www.w3.org/2000/svg">
<g filter="url(#filter0_d_2_105)">
<rect x="6" y="2" width="30" height="30" rx="12" fill="white"/>
</g>
<defs>
<filter id="filter0_d_2_105" x="0.5" y="-2.38419e-07" width="41" height="41" filterUnits="userSpaceOnUse" color-interpolation-filters="sRGB">
<feFlood flood-opacity="0" result="BackgroundImageFix"/>
<feColorMatrix in="SourceAlpha" type="matrix" values="0 0 0 0 0 0 0 0 0 0 0 0 0 0 0 0 0 0 127 0" result="hardAlpha"/>
<feOffset dy="3.5"/>
<feGaussianBlur stdDeviation="2.75"/>
<feColorMatrix type="matrix" values="0 0 0 0 0 0 0 0 0 0 0 0 0 0 0 0 0 0 0.02 0"/>
<feBlend mode="normal" in2="BackgroundImageFix" result="effect1_dropShadow_2_105"/>
<feBlend mode="normal" in="SourceGraphic" in2="effect1_dropShadow_2_105" result="shape"/>
</filter>
</defs>
    <svg x='12' y='7' width="19" height="19" viewBox="0 0 16 16" fill="none" xmlns="http://www.w3.org/2000/svg">
        <path d="M14.2568 4.03142C14.2231 3.96577 14.1743 3.90902 14.1144 3.8658C14.0546 3.82257 13.9854 3.79409 13.9125 3.78267C13.8395 3.77124 13.7649 3.77721 13.6948 3.80007C13.6246 3.82293 13.5608 3.86205 13.5086 3.91423L11.7086 5.7154C11.6202 5.80248 11.5011 5.8513 11.3771 5.8513C11.253 5.8513 11.1339 5.80248 11.0456 5.7154L10.2675 4.93611C10.2239 4.89258 10.1894 4.8409 10.1658 4.78402C10.1422 4.72714 10.1301 4.66618 10.1301 4.60461C10.1301 4.54305 10.1422 4.48208 10.1658 4.4252C10.1894 4.36833 10.2239 4.31665 10.2675 4.27312L12.0598 2.48044C12.1136 2.42672 12.1534 2.36074 12.176 2.28818C12.1986 2.21563 12.2032 2.13868 12.1894 2.06395C12.1756 1.98923 12.1439 1.91898 12.0969 1.85924C12.0499 1.79951 11.9892 1.75209 11.9198 1.72107C10.566 1.11579 8.87614 1.43161 7.81062 2.48923C6.90534 3.38806 6.63552 4.79255 7.07087 6.34265C7.09434 6.42531 7.09448 6.51286 7.07126 6.59559C7.04804 6.67832 7.00238 6.75302 6.93933 6.8114L2.06199 11.266C1.87198 11.4366 1.71872 11.6441 1.61155 11.8759C1.50439 12.1077 1.44557 12.3588 1.43867 12.6141C1.43178 12.8694 1.47696 13.1234 1.57146 13.3606C1.66597 13.5978 1.8078 13.8133 1.98833 13.9939C2.16885 14.1745 2.38428 14.3164 2.62146 14.4111C2.85865 14.5057 3.11262 14.551 3.36788 14.5442C3.62315 14.5374 3.87436 14.4787 4.10619 14.3716C4.33801 14.2646 4.5456 14.1114 4.71628 13.9215L9.21863 9.03327C9.27617 8.97103 9.3496 8.92567 9.43101 8.90208C9.51243 8.87849 9.59873 8.87756 9.68064 8.89939C10.1219 9.0203 10.5772 9.08304 11.0347 9.08601C12.0133 9.08601 12.8719 8.76931 13.4913 8.15905C14.6383 7.02907 14.8132 5.11247 14.2568 4.03142ZM3.41521 13.6007C3.22226 13.6217 3.02753 13.5824 2.85789 13.488C2.68826 13.3937 2.55208 13.2491 2.46815 13.0741C2.38423 12.899 2.35669 12.7023 2.38934 12.511C2.422 12.3196 2.51323 12.1432 2.65045 12.0059C2.78768 11.8686 2.96412 11.7773 3.15544 11.7446C3.34676 11.7119 3.54351 11.7394 3.71856 11.8232C3.8936 11.9071 4.0383 12.0432 4.13268 12.2128C4.22706 12.3824 4.26648 12.5771 4.24548 12.7701C4.22238 12.9824 4.12749 13.1805 3.97651 13.3315C3.82553 13.4825 3.62751 13.5775 3.41521 13.6007Z" fill="#4FD1C5"/>
    </svg>
</svg>
