<svg width="12" height="13" viewBox="0 0 12 13" fill="none" xmlns="http://www.w3.org/2000/svg">
<g clip-path="url(#clip0_4_279)">
<path d="M6.00003 4.62512C5.62919 4.62512 5.26668 4.73509 4.95834 4.94112C4.65 5.14714 4.40967 5.43998 4.26776 5.78259C4.12584 6.1252 4.08871 6.5022 4.16106 6.86591C4.23341 7.22963 4.41198 7.56372 4.67421 7.82595C4.93643 8.08817 5.27052 8.26675 5.63424 8.33909C5.99795 8.41144 6.37495 8.37431 6.71756 8.23239C7.06017 8.09048 7.35301 7.85016 7.55904 7.54181C7.76506 7.23347 7.87503 6.87096 7.87503 6.50012C7.87355 6.0033 7.67553 5.52724 7.32422 5.17593C6.97291 4.82463 6.49686 4.6266 6.00003 4.62512ZM10.0482 6.50012C10.0472 6.67532 10.0343 6.85025 10.0097 7.02371L11.1509 7.91715C11.2006 7.95819 11.2341 8.01557 11.2454 8.07903C11.2567 8.14248 11.245 8.20789 11.2125 8.26356L10.133 10.1273C10.1002 10.1825 10.049 10.2243 9.98834 10.2454C9.92773 10.2666 9.8616 10.2657 9.80159 10.2429L8.4598 9.70379C8.18039 9.91894 7.87463 10.0975 7.54995 10.2351L7.34933 11.6596C7.3381 11.7235 7.30506 11.7814 7.25586 11.8235C7.20665 11.8657 7.14434 11.8894 7.07956 11.8907H4.9205C4.8569 11.8895 4.7956 11.8667 4.74661 11.8262C4.69761 11.7856 4.66382 11.7296 4.65073 11.6674L4.45011 10.2429C4.12453 10.1068 3.81855 9.92799 3.54027 9.71106L2.19847 10.2501C2.13849 10.2729 2.07238 10.2739 2.01177 10.2528C1.95115 10.2317 1.89992 10.1899 1.86706 10.1348L0.787533 8.27129C0.755039 8.21563 0.743398 8.15022 0.75469 8.08676C0.765982 8.0233 0.799472 7.96593 0.849174 7.92489L1.99035 7.03145C1.966 6.85536 1.95317 6.67788 1.95191 6.50012C1.95288 6.32492 1.96572 6.14999 1.99035 5.97653L0.849174 5.08309C0.799472 5.04205 0.765982 4.98467 0.75469 4.92121C0.743398 4.85776 0.755039 4.79235 0.787533 4.73668L1.86706 2.87293C1.89988 2.81776 1.9511 2.77593 2.01172 2.75479C2.07234 2.73366 2.13846 2.73458 2.19847 2.75739L3.54027 3.29645C3.81967 3.0813 4.12543 2.90274 4.45011 2.76512L4.65073 1.34059C4.66196 1.27678 4.695 1.21885 4.74421 1.1767C4.79341 1.13455 4.85572 1.1108 4.9205 1.1095H7.07956C7.14316 1.11073 7.20446 1.1335 7.25345 1.17406C7.30245 1.21463 7.33625 1.27061 7.34933 1.33286L7.54995 2.75739C7.87594 2.89332 8.18232 3.07216 8.46097 3.28918L9.80159 2.75012C9.86157 2.72729 9.92768 2.72634 9.98829 2.74743C10.0489 2.76852 10.1001 2.8103 10.133 2.86543L11.2125 4.72918C11.245 4.78485 11.2567 4.85026 11.2454 4.91372C11.2341 4.97717 11.2006 5.03455 11.1509 5.07559L10.0097 5.96903C10.034 6.14504 10.0469 6.32244 10.0482 6.50012Z" fill="currentColor"/>
</g>
<defs>
<clipPath id="clip0_4_279">
<rect width="12" height="12" fill="white" transform="translate(0 0.5)"/>
</clipPath>
</defs>
</svg>
