<svg width="61" height="25" viewBox="0 0 61 25" fill="none" xmlns="http://www.w3.org/2000/svg">
<g clip-path="url(#clip0_92_51)">
<g clip-path="url(#clip1_92_51)">
<path d="M7.5 7.72803C5.03596 7.72803 3.03125 9.73273 3.03125 12.1968C3.03125 14.6608 5.03596 16.6655 7.5 16.6655C9.96404 16.6655 11.9687 14.6608 11.9687 12.1968C11.9687 9.73273 9.96404 7.72803 7.5 7.72803ZM6.42105 10.2378C6.69326 9.9493 7.07633 9.79053 7.5 9.79053C7.92367 9.79053 8.3033 9.95037 8.57658 10.2404C8.85351 10.5343 8.98822 10.9292 8.95643 11.3537C8.89283 12.1968 8.23971 12.8843 7.5 12.8843C6.76029 12.8843 6.10588 12.1968 6.04357 11.3535C6.01199 10.9255 6.14648 10.5294 6.42105 10.2378ZM7.5 15.978C6.99522 15.9784 6.49551 15.8773 6.0305 15.6809C5.5655 15.4845 5.14467 15.1967 4.79297 14.8346C4.9944 14.5474 5.25105 14.3031 5.54793 14.1162C6.09557 13.7651 6.78865 13.5718 7.5 13.5718C8.21135 13.5718 8.90443 13.7651 9.45143 14.1162C9.74855 14.3031 10.0054 14.5473 10.207 14.8346C9.85536 15.1968 9.43454 15.4846 8.96953 15.681C8.50451 15.8774 8.00479 15.9784 7.5 15.978Z" fill="currentColor"/>
<path d="M19.0293 13.4756C19.0749 13.8044 19.1644 14.0502 19.2979 14.213C19.542 14.5092 19.9603 14.6573 20.5527 14.6573C20.9076 14.6573 21.1956 14.6182 21.417 14.5401C21.8369 14.3904 22.0469 14.112 22.0469 13.7051C22.0469 13.4675 21.9427 13.2836 21.7344 13.1534C21.526 13.0264 21.1989 12.9141 20.7529 12.8165L19.9912 12.6456C19.2425 12.4763 18.7249 12.2924 18.4385 12.0938C17.9535 11.7618 17.7109 11.2426 17.7109 10.5362C17.7109 9.89166 17.9453 9.35618 18.4141 8.92975C18.8828 8.50332 19.5713 8.2901 20.4795 8.2901C21.238 8.2901 21.8841 8.49192 22.418 8.89557C22.9551 9.29596 23.2367 9.87864 23.2627 10.6436H21.8174C21.7913 10.2107 21.6025 9.90306 21.251 9.72076C21.0166 9.60032 20.7253 9.5401 20.377 9.5401C19.9896 9.5401 19.6803 9.61823 19.4492 9.77448C19.2181 9.93073 19.1025 10.1488 19.1025 10.4288C19.1025 10.6859 19.2165 10.878 19.4443 11.0049C19.5908 11.0896 19.9033 11.1889 20.3818 11.3028L21.6221 11.6006C22.1657 11.7309 22.5758 11.905 22.8525 12.1231C23.2822 12.4616 23.4971 12.9516 23.4971 13.5928C23.4971 14.2504 23.2448 14.7973 22.7402 15.2335C22.2389 15.6664 21.5293 15.8829 20.6113 15.8829C19.6738 15.8829 18.9365 15.6697 18.3994 15.2432C17.8623 14.8135 17.5938 14.2243 17.5938 13.4756H19.0293ZM25.9873 15.6973H24.4932V8.50006H25.9873V15.6973ZM32.2324 10.7462C32.1185 10.2546 31.8402 9.91119 31.3975 9.71588C31.1501 9.60846 30.875 9.55475 30.5723 9.55475C29.9928 9.55475 29.516 9.77448 29.1416 10.2139C28.7705 10.6501 28.585 11.3077 28.585 12.1866C28.585 13.072 28.7868 13.6986 29.1904 14.0665C29.5941 14.4343 30.0531 14.6182 30.5674 14.6182C31.0719 14.6182 31.4854 14.4734 31.8076 14.1837C32.1299 13.8907 32.3285 13.5082 32.4033 13.0362H30.7383V11.835H33.7363V15.6973H32.7402L32.5889 14.7989C32.2992 15.1407 32.0387 15.3816 31.8076 15.5215C31.4105 15.7657 30.9222 15.8878 30.3428 15.8878C29.389 15.8878 28.6077 15.5574 27.999 14.8965C27.3643 14.2325 27.0469 13.3243 27.0469 12.1719C27.0469 11.0066 27.3675 10.0723 28.0088 9.3692C28.6501 8.66608 29.498 8.31451 30.5527 8.31451C31.4674 8.31451 32.2015 8.54726 32.7549 9.01276C33.3115 9.475 33.6305 10.0528 33.7119 10.7462H32.2324ZM35.1523 8.50006H36.7295L39.5957 13.5245V8.50006H40.9971V15.6973H39.4932L36.5537 10.585V15.6973H35.1523V8.50006ZM45.1865 8.50006H46.7148V12.9239C46.7148 13.4187 46.7734 13.78 46.8906 14.0079C47.0729 14.4115 47.4701 14.6133 48.082 14.6133C48.6908 14.6133 49.0863 14.4115 49.2686 14.0079C49.3857 13.78 49.4443 13.4187 49.4443 12.9239V8.50006H50.9727V12.9239C50.9727 13.6889 50.8538 14.2846 50.6162 14.711C50.1735 15.4922 49.3288 15.8829 48.082 15.8829C46.8353 15.8829 45.9889 15.4922 45.543 14.711C45.3053 14.2846 45.1865 13.6889 45.1865 12.9239V8.50006ZM56.4658 10.7901C56.4658 10.4158 56.3665 10.1488 56.168 9.98932C55.9727 9.82981 55.6976 9.75006 55.3428 9.75006H53.9414V11.8692H55.3428C55.6976 11.8692 55.9727 11.7829 56.168 11.6104C56.3665 11.4379 56.4658 11.1644 56.4658 10.7901ZM57.9551 10.7803C57.9551 11.6299 57.7402 12.2305 57.3105 12.5821C56.8809 12.9337 56.2673 13.1094 55.4697 13.1094H53.9414V15.6973H52.4473V8.50006H55.582C56.3047 8.50006 56.8809 8.68561 57.3105 9.0567C57.7402 9.4278 57.9551 10.0023 57.9551 10.7803Z" fill="currentColor"/>
</g>
<g clip-path="url(#clip2_92_51)">
<rect x="30.2476" y="24.1973" width="0.00478125" height="0.00478125" fill="#C4C4C4"/>
</g>
</g>
<defs>
<clipPath id="clip0_92_51">
<rect width="56.5" height="24.0048" fill="white" transform="translate(2 0.197327)"/>
</clipPath>
<clipPath id="clip1_92_51">
<rect width="56.5" height="15" fill="white" transform="translate(2 4.69733)"/>
</clipPath>
<clipPath id="clip2_92_51">
<rect width="24.0048" height="0.00476141" fill="white" transform="translate(18.2476 24.1973)"/>
</clipPath>
</defs>
</svg>
