<svg width="61" height="25" viewBox="0 0 61 25" fill="none" xmlns="http://www.w3.org/2000/svg">
<g clip-path="url(#clip0_92_64)">
<g clip-path="url(#clip1_92_64)">
<path d="M9.18623 10.2892C9.18623 10.5685 9.18623 10.8392 9.27432 11.0928C8.34834 12.1799 5.90342 15.0523 5.67568 15.2715C5.63042 15.3121 5.59421 15.3618 5.56941 15.4173C5.54461 15.4728 5.53178 15.5329 5.53174 15.5937C5.53174 15.7763 5.64346 15.9525 5.73799 16.0513C5.87979 16.1996 6.48564 16.7603 6.59736 16.6529C6.92822 16.3306 6.99482 16.2447 7.13018 16.1115C7.33428 15.9117 7.10869 15.5035 7.17959 15.3381C7.25049 15.1726 7.32568 15.1404 7.44814 15.1146C7.57061 15.0888 7.7876 15.1769 7.95732 15.1791C8.13564 15.1812 8.23232 15.106 8.36553 14.9814C8.47295 14.8826 8.55029 14.7902 8.55244 14.6463C8.55674 14.4529 8.27744 14.1972 8.48584 13.9931C8.69424 13.789 8.99502 14.1263 9.21631 14.1006C9.4376 14.0748 9.70615 13.7676 9.73408 13.6365C9.76201 13.5054 9.48271 13.1681 9.52568 12.9769C9.54072 12.9125 9.67178 12.7621 9.77061 12.7406C9.86943 12.7191 10.3077 12.8888 10.4065 12.8674C10.5269 12.8416 10.6665 12.7148 10.7804 12.6439C11.1134 12.7879 11.4163 12.8459 11.8052 12.8459C13.2769 12.8459 14.4692 11.6986 14.4692 10.2849C14.4692 8.87127 13.2769 7.72894 11.8052 7.72894C10.3335 7.72894 9.18623 8.87556 9.18623 10.2892ZM13.0942 9.79144C13.0942 9.92742 13.0539 10.0603 12.9784 10.1734C12.9028 10.2865 12.7955 10.3746 12.6698 10.4266C12.5442 10.4786 12.406 10.4923 12.2726 10.4657C12.1393 10.4392 12.0168 10.3737 11.9206 10.2776C11.8245 10.1814 11.759 10.0589 11.7324 9.92557C11.7059 9.79221 11.7195 9.65397 11.7716 9.52835C11.8236 9.40272 11.9117 9.29535 12.0248 9.21981C12.1378 9.14426 12.2708 9.10394 12.4067 9.10394C12.5891 9.10394 12.7639 9.17638 12.8929 9.30531C13.0218 9.43424 13.0942 9.60911 13.0942 9.79144Z" fill="currentColor"/>
<path d="M21.4727 13.4756C21.5182 13.8044 21.6077 14.0502 21.7412 14.213C21.9854 14.5092 22.4036 14.6573 22.9961 14.6573C23.3509 14.6573 23.639 14.6182 23.8604 14.5401C24.2803 14.3904 24.4902 14.112 24.4902 13.7051C24.4902 13.4675 24.3861 13.2836 24.1777 13.1534C23.9694 13.0264 23.6423 12.9141 23.1963 12.8165L22.4346 12.6456C21.6859 12.4763 21.1683 12.2924 20.8818 12.0938C20.3968 11.7618 20.1543 11.2426 20.1543 10.5362C20.1543 9.89166 20.3887 9.35618 20.8574 8.92975C21.3262 8.50332 22.0146 8.2901 22.9229 8.2901C23.6813 8.2901 24.3275 8.49192 24.8613 8.89557C25.3984 9.29596 25.68 9.87864 25.7061 10.6436H24.2607C24.2347 10.2107 24.0459 9.90306 23.6943 9.72076C23.46 9.60032 23.1686 9.5401 22.8203 9.5401C22.4329 9.5401 22.1237 9.61823 21.8926 9.77448C21.6615 9.93073 21.5459 10.1488 21.5459 10.4288C21.5459 10.6859 21.6598 10.878 21.8877 11.0049C22.0342 11.0896 22.3467 11.1889 22.8252 11.3028L24.0654 11.6006C24.609 11.7309 25.0192 11.905 25.2959 12.1231C25.7256 12.4616 25.9404 12.9516 25.9404 13.5928C25.9404 14.2504 25.6882 14.7973 25.1836 15.2335C24.6823 15.6664 23.9727 15.8829 23.0547 15.8829C22.1172 15.8829 21.3799 15.6697 20.8428 15.2432C20.3057 14.8135 20.0371 14.2243 20.0371 13.4756H21.4727ZM28.4307 15.6973H26.9365V8.50006H28.4307V15.6973ZM34.6758 10.7462C34.5618 10.2546 34.2835 9.91119 33.8408 9.71588C33.5934 9.60846 33.3184 9.55475 33.0156 9.55475C32.4362 9.55475 31.9593 9.77448 31.585 10.2139C31.2139 10.6501 31.0283 11.3077 31.0283 12.1866C31.0283 13.072 31.2301 13.6986 31.6338 14.0665C32.0374 14.4343 32.4964 14.6182 33.0107 14.6182C33.5153 14.6182 33.9287 14.4734 34.251 14.1837C34.5732 13.8907 34.7718 13.5082 34.8467 13.0362H33.1816V11.835H36.1797V15.6973H35.1836L35.0322 14.7989C34.7425 15.1407 34.4821 15.3816 34.251 15.5215C33.8538 15.7657 33.3656 15.8878 32.7861 15.8878C31.8324 15.8878 31.0511 15.5574 30.4424 14.8965C29.8076 14.2325 29.4902 13.3243 29.4902 12.1719C29.4902 11.0066 29.8109 10.0723 30.4521 9.3692C31.0934 8.66608 31.9414 8.31451 32.9961 8.31451C33.9108 8.31451 34.6449 8.54726 35.1982 9.01276C35.7549 9.475 36.0739 10.0528 36.1553 10.7462H34.6758ZM37.5957 8.50006H39.1729L42.0391 13.5245V8.50006H43.4404V15.6973H41.9365L38.9971 10.585V15.6973H37.5957V8.50006ZM49.0068 15.6973H47.5127V8.50006H49.0068V15.6973ZM50.3887 8.50006H51.9658L54.832 13.5245V8.50006H56.2334V15.6973H54.7295L51.79 10.585V15.6973H50.3887V8.50006Z" fill="currentColor"/>
</g>
<g clip-path="url(#clip2_92_64)">
<rect x="30.7476" y="24.1973" width="0.00478125" height="0.00478125" fill="#C4C4C4"/>
</g>
</g>
<defs>
<clipPath id="clip0_92_64">
<rect width="52.5" height="24.0048" fill="white" transform="translate(4.5 0.197327)"/>
</clipPath>
<clipPath id="clip1_92_64">
<rect width="52.5" height="15" fill="white" transform="translate(4.5 4.69733)"/>
</clipPath>
<clipPath id="clip2_92_64">
<rect width="24.0048" height="0.00476141" fill="white" transform="translate(18.7476 24.1973)"/>
</clipPath>
</defs>
</svg>
