<svg width="20" height="8" viewBox="0 0 20 8" fill="none" xmlns="http://www.w3.org/2000/svg">
<path d="M4.81445 2.59277C4.81445 2.21842 4.71517 1.9515 4.5166 1.79199C4.32129 1.63249 4.04622 1.55273 3.69141 1.55273H2.29004V3.67188H3.69141C4.04622 3.67188 4.32129 3.58561 4.5166 3.41309C4.71517 3.24056 4.81445 2.96712 4.81445 2.59277ZM6.30371 2.58301C6.30371 3.43262 6.08887 4.0332 5.65918 4.38477C5.22949 4.73633 4.61589 4.91211 3.81836 4.91211H2.29004V7.5H0.795898V0.302734H3.93066C4.65332 0.302734 5.22949 0.488281 5.65918 0.859375C6.08887 1.23047 6.30371 1.80501 6.30371 2.58301ZM8.8916 1.55273V6.25H10.2783C10.988 6.25 11.4827 5.90007 11.7627 5.2002C11.9157 4.81608 11.9922 4.35872 11.9922 3.82812C11.9922 3.0957 11.8766 2.53418 11.6455 2.14355C11.4176 1.74967 10.9619 1.55273 10.2783 1.55273H8.8916ZM10.5322 0.302734C10.9782 0.309245 11.3493 0.361328 11.6455 0.458984C12.1501 0.625 12.5586 0.929362 12.8711 1.37207C13.1217 1.73014 13.2926 2.11751 13.3838 2.53418C13.4749 2.95085 13.5205 3.34798 13.5205 3.72559C13.5205 4.68262 13.3285 5.49316 12.9443 6.15723C12.4235 7.05241 11.6195 7.5 10.5322 7.5H7.43164V0.302734H10.5322ZM14.6582 0.3125H19.7607V1.57715H16.1523V3.23242H19.3115V4.48242H16.1523V7.5H14.6582V0.3125Z" fill="#2D3748"/>
</svg>
